<svg width="335" height="351" viewBox="0 0 335 351" fill="none" xmlns="http://www.w3.org/2000/svg">
<g clip-path="url(#clip0)">
<path d="M233.03 137.56C232.46 139.11 230.73 139.91 229.18 139.33L168.91 117.08C167.36 116.51 166.56 114.78 167.14 113.23L202.38 17.78C202.95 16.23 204.68 15.43 206.23 16L266.5 38.25C268.05 38.82 268.85 40.55 268.27 42.1L233.03 137.56Z" fill="#D1D1D1"/>
<path d="M258.531 54.77C257.961 56.32 256.231 57.12 254.681 56.55L233.341 48.67C231.791 48.1 230.991 46.37 231.561 44.82L235.461 34.27C236.031 32.72 237.761 31.92 239.311 32.49L260.651 40.37C262.201 40.94 263.001 42.67 262.431 44.22L258.531 54.77Z" fill="white"/>
<path d="M213.361 50.08C219.311 46.95 240.151 53.31 242.481 57.1C244.811 60.89 234.801 72.12 231.701 89.9C228.601 107.68 220.101 121.33 215.401 124.66C210.711 127.99 192.111 123.36 189.371 115.05C184.471 100.17 207.411 53.21 213.361 50.08Z" fill="#FF506E"/>
<path d="M225.471 43.98C225.471 43.98 194.911 99.32 197.531 127.83C192.171 112.52 204.241 61.55 225.471 43.98Z" fill="#FCC3D2"/>
<path d="M242.451 50.69C242.451 50.69 211.891 106.03 214.511 134.54C209.151 119.23 221.221 68.26 242.451 50.69Z" fill="#FCC3D2"/>
<path d="M230.11 45.69C230.11 45.69 204.09 102.71 200.82 129.04C200.39 115.56 215.49 65.7 230.11 45.69Z" fill="#FCC3D2"/>
<path d="M234.64 47.37C234.64 47.37 208.62 104.39 205.35 130.72C204.93 117.23 220.02 67.38 234.64 47.37Z" fill="#FCC3D2"/>
<path opacity="0.6" d="M231.7 89.9C234.8 72.12 244.81 60.89 242.48 57.1C241.85 56.08 239.87 54.87 237.21 53.71C235.04 59.37 229.15 68.82 226.9 81.73C223.8 99.51 215.3 113.16 210.6 116.49C207.02 119.03 195.34 116.93 188.79 112.1C188.9 113.18 189.08 114.17 189.37 115.05C192.11 123.36 210.71 127.99 215.4 124.66C220.1 121.33 228.6 107.68 231.7 89.9Z" fill="#FF506E"/>
<path d="M266.5 38.25L260.04 35.87C260.14 96.71 202.89 122.46 178.82 81.55L167.13 113.22C166.56 114.77 167.35 116.5 168.9 117.07L229.17 139.32C230.72 139.89 232.45 139.1 233.02 137.55L268.26 42.1C268.85 40.55 268.05 38.83 266.5 38.25Z" fill="#D1D1D1"/>
<path d="M320.63 117.07C309.51 149.77 270.3 154.81 244.63 130.09C249.51 107.16 259.39 90.25 259.39 90.25L258.37 78.89C261.59 79.8 267.74 89.03 267.74 89.03L289.13 92.85L290.39 93.07L311.78 96.89C311.78 96.89 320.73 90.36 324.07 90.62L319.18 100.92C319.17 100.93 320.3 107.28 320.63 117.07Z" fill="#B0F0FF"/>
<path d="M318.97 125.78C318.97 125.78 311.43 116.82 301.78 121.53C292.14 126.24 289.31 122.18 279.62 128.07C271.47 126.28 264.75 125.07 259.35 127.84C253.18 125.39 247.64 128.97 246.44 135.7C245.24 142.43 283.75 162.84 283.75 162.84L318.13 149.5L318.97 125.78Z" fill="white"/>
<path d="M245.09 128.02C244.93 128.71 244.78 129.4 244.63 130.09C270.3 154.81 309.51 149.76 320.63 117.07C320.32 107.94 319.33 101.8 319.19 101.01C319.57 103.23 327.07 149.34 305.02 184.06C306.5 189.06 306.1 195.09 306.1 195.09L296.62 185.61C296.62 185.61 281.16 182.85 274.58 181.68C274.12 181.6 273.69 181.52 273.32 181.46C266.74 180.29 251.28 177.53 251.28 177.53L239.1 183.15C239.1 183.15 240.81 177.36 243.93 173.17C240.52 157.4 241.98 141.57 245.09 128.02Z" fill="#F46438"/>
<path d="M274.27 129.35C274.5 130.1 275.11 130.58 275.64 130.42C276.17 130.26 276.41 129.52 276.19 128.77L275.32 125.9C275.09 125.15 274.48 124.67 273.95 124.83C273.42 124.99 273.18 125.73 273.4 126.48L274.27 129.35Z" fill="white"/>
<path d="M281.59 138.11C281.82 138.86 282.43 139.34 282.96 139.18C283.49 139.02 283.73 138.28 283.51 137.53L282.64 134.66C282.41 133.91 281.8 133.43 281.27 133.6C280.74 133.76 280.5 134.5 280.72 135.25L281.59 138.11Z" fill="#F3F4D7"/>
<path d="M260.84 135.84C261.07 136.59 261.68 137.07 262.21 136.91C262.74 136.75 262.98 136.01 262.76 135.26L261.89 132.39C261.66 131.64 261.05 131.16 260.52 131.32C259.99 131.48 259.75 132.22 259.98 132.97L260.84 135.84Z" fill="#F3F4D7"/>
<path d="M309.02 129.54C309.25 130.29 309.86 130.77 310.39 130.61C310.92 130.45 311.16 129.71 310.94 128.96L310.07 126.09C309.84 125.34 309.23 124.86 308.7 125.02C308.17 125.18 307.93 125.92 308.15 126.67L309.02 129.54Z" fill="#F3F4D7"/>
<path d="M301.109 127.58C301.709 127.08 301.909 126.33 301.559 125.9C301.209 125.48 300.429 125.54 299.829 126.04L297.529 127.96C296.929 128.46 296.729 129.21 297.079 129.64C297.429 130.06 298.209 130 298.809 129.5L301.109 127.58Z" fill="#F3F4D7"/>
<path d="M279.16 134.61C278.76 134.84 278.67 135.41 278.94 135.89C279.22 136.37 279.76 136.57 280.16 136.34L281.68 135.46C282.08 135.23 282.17 134.66 281.9 134.18C281.62 133.7 281.08 133.5 280.68 133.73L279.16 134.61Z" fill="#F3F4D7"/>
<path d="M287.589 139.08C287.189 139.31 287.099 139.88 287.369 140.36C287.649 140.84 288.189 141.04 288.589 140.81L290.109 139.93C290.509 139.7 290.599 139.13 290.329 138.65C290.049 138.17 289.509 137.97 289.109 138.2L287.589 139.08Z" fill="#F3F4D7"/>
<path d="M261.87 135.16C261.47 135.39 261.38 135.96 261.65 136.44C261.93 136.92 262.47 137.12 262.87 136.89L264.39 136.01C264.79 135.78 264.88 135.21 264.61 134.73C264.33 134.25 263.79 134.05 263.39 134.28L261.87 135.16Z" fill="#F3F4D7"/>
<path d="M260.369 133.35C260.009 133.06 259.439 133.17 259.089 133.6C258.739 134.03 258.739 134.61 259.099 134.9L260.459 136.01C260.809 136.3 261.389 136.19 261.739 135.76C262.089 135.33 262.089 134.75 261.729 134.46L260.369 133.35Z" fill="#F3F4D7"/>
<path d="M297.66 129.11C297.26 129.34 297.17 129.91 297.44 130.39C297.72 130.87 298.26 131.07 298.66 130.84L300.18 129.96C300.58 129.73 300.67 129.16 300.4 128.68C300.12 128.2 299.58 128 299.18 128.23L297.66 129.11Z" fill="#F3F4D7"/>
<path d="M306.06 131.31C305.66 131.54 305.57 132.11 305.84 132.59C306.12 133.07 306.66 133.27 307.06 133.04L308.58 132.16C308.98 131.93 309.07 131.36 308.8 130.88C308.52 130.4 307.98 130.2 307.58 130.43L306.06 131.31Z" fill="#F3F4D7"/>
<path d="M258.28 126.97C257.61 127.38 257.31 128.09 257.6 128.56C257.89 129.03 258.66 129.08 259.33 128.67L261.89 127.1C262.56 126.69 262.86 125.98 262.57 125.51C262.28 125.04 261.51 124.99 260.84 125.4L258.28 126.97Z" fill="white"/>
<path d="M311.85 123.24C311.18 123.65 310.88 124.36 311.17 124.83C311.46 125.3 312.23 125.35 312.9 124.94L315.45 123.37C316.12 122.96 316.42 122.25 316.14 121.78C315.85 121.31 315.08 121.26 314.41 121.67L311.85 123.24Z" fill="white"/>
<path d="M282.4 129.79C282.63 130.54 283.24 131.02 283.77 130.86C284.3 130.7 284.54 129.96 284.32 129.21L283.45 126.34C283.22 125.59 282.61 125.11 282.08 125.27C281.55 125.43 281.31 126.17 281.53 126.92L282.4 129.79Z" fill="white"/>
<path d="M292.309 123.54C291.579 123.81 291.139 124.45 291.329 124.97C291.519 125.49 292.269 125.69 292.999 125.42L295.819 124.38C296.549 124.11 296.989 123.47 296.799 122.95C296.609 122.43 295.859 122.23 295.129 122.5L292.309 123.54Z" fill="white"/>
<path d="M302.27 119.85C301.49 119.84 300.85 120.28 300.84 120.83C300.83 121.38 301.46 121.84 302.25 121.85L305.25 121.88C306.03 121.89 306.67 121.45 306.68 120.9C306.69 120.35 306.06 119.89 305.27 119.88L302.27 119.85Z" fill="white"/>
<path d="M248.26 129.85C247.48 129.84 246.84 130.28 246.83 130.83C246.83 131.38 247.45 131.84 248.24 131.85L251.24 131.88C252.02 131.89 252.66 131.45 252.67 130.9C252.68 130.35 252.05 129.89 251.27 129.88L248.26 129.85Z" fill="white"/>
<path d="M257.9 162.05C257.61 163.68 258.7 165.24 260.33 165.53L292.69 171.3C294.32 171.59 295.88 170.5 296.17 168.87L297.33 162.35C297.62 160.72 296.54 159.16 294.9 158.87L262.54 153.1C260.91 152.81 259.35 153.89 259.06 155.53L257.9 162.05Z" fill="#333132"/>
<path opacity="0.6" d="M306.09 195.09L296.61 185.61C296.61 185.61 281.15 182.85 274.57 181.68C274.11 181.6 273.68 181.52 273.31 181.46C266.73 180.29 251.27 177.53 251.27 177.53L239.09 183.15C239.09 183.15 240.8 177.36 243.92 173.17C243.05 169.16 242.51 165.15 242.22 161.18C280.01 176.78 304.93 160.61 319.08 144.53C317.1 157.46 312.99 171.51 305.01 184.07C306.49 189.07 306.09 195.09 306.09 195.09Z" fill="#F46438"/>
<path d="M20.4601 112.24C20.4601 112.24 10.6901 114.05 4.87012 104.76C12.0401 100.6 20.0701 103.4 25.1601 110.33C23.1701 112.58 20.4601 112.24 20.4601 112.24Z" fill="#1A894A"/>
<path opacity="0.4" d="M8.62012 103.23C15.9201 102.5 22.7201 107.94 17.3901 112.34C19.2301 112.46 20.4501 112.23 20.4501 112.23C20.4501 112.23 23.1601 112.57 25.1601 110.32C20.9401 104.59 14.7101 101.7 8.62012 103.23Z" fill="#1A894A"/>
<path d="M30.7601 102.08C30.7601 102.08 32.4901 92.29 23.1501 86.56C19.0601 93.77 21.9201 101.77 28.8901 106.81C31.1201 104.79 30.7601 102.08 30.7601 102.08Z" fill="#1A894A"/>
<path opacity="0.4" d="M21.6599 90.33C20.9999 97.64 26.4899 104.39 30.8399 99.03C30.9699 100.87 30.7599 102.09 30.7599 102.09C30.7599 102.09 31.1199 104.8 28.8899 106.81C23.1199 102.63 20.1699 96.43 21.6599 90.33Z" fill="#1A894A"/>
<path d="M20.9903 108.46C20.9903 108.46 9.28033 103.21 9.92033 89.08C20.5803 89.93 27.0603 98.79 27.3803 109.89C23.6203 110.81 20.9903 108.46 20.9903 108.46Z" fill="#1A894A"/>
<path opacity="0.4" d="M15.0303 90.21C23.3203 94.8 26.5403 105.56 17.6603 106.32C19.5203 107.79 20.9903 108.46 20.9903 108.46C20.9903 108.46 23.6203 110.81 27.3903 109.89C27.1203 100.69 22.6203 93.06 15.0303 90.21Z" fill="#1A894A"/>
<path d="M16.7002 113.47C16.7002 113.47 27.7202 101.03 33.0202 98.34C38.3202 95.65 75.0702 152.94 70.5802 156.92C66.0802 160.9 14.9002 119.74 16.7002 113.47Z" fill="#F9954B"/>
<path opacity="0.6" d="M33.0199 98.34C31.5599 99.08 29.6599 100.57 27.6899 102.32C32.0999 101.36 37.1799 103.13 40.9699 109C46.3999 117.38 34.6799 125.27 28.6099 125.97C35.4599 131.25 46.7799 113.87 53.0899 125.32C59.3999 136.77 51.5399 139.22 47.6799 140.14C51.5699 143.21 54.9699 136.68 58.5399 139.2C61.4999 141.29 63.2799 146.58 55.5599 149.75C63.1199 154.95 69.1699 158.18 70.5799 156.92C75.0599 152.94 38.3199 95.65 33.0199 98.34Z" fill="#F9954B"/>
<path d="M253.821 97.21C253.751 97.24 253.681 97.28 253.601 97.31C250.421 98.57 246.821 97.01 245.561 93.83C244.661 91.55 245.211 89.06 246.761 87.37L237.531 74.51L198.171 147.85L269.821 119.5L253.821 97.21Z" fill="#FFE89F"/>
<path d="M250.03 108.83C250.14 109 250.23 109.18 250.31 109.37C251.24 111.72 249.45 114.64 246.32 115.88C244.88 116.45 243.42 116.56 242.16 116.3C243.35 118.24 246.36 118.91 249.24 117.77C252.38 116.53 254.16 113.62 253.23 111.26C252.73 109.99 251.53 109.14 250.03 108.83Z" fill="#DDC06C"/>
<path d="M218.41 129.21C218.46 129.3 218.52 129.39 218.56 129.49C219.04 130.71 218.11 132.23 216.48 132.87C215.73 133.16 214.97 133.22 214.32 133.09C214.94 134.1 216.51 134.44 218 133.85C219.63 133.2 220.56 131.69 220.08 130.47C219.81 129.81 219.19 129.37 218.41 129.21Z" fill="#DDC06C"/>
<path d="M235.08 94.8C235.13 94.89 235.19 94.98 235.22 95.08C235.7 96.3 234.77 97.82 233.14 98.46C232.39 98.76 231.63 98.81 230.98 98.68C231.6 99.69 233.16 100.03 234.66 99.44C236.29 98.8 237.22 97.28 236.74 96.06C236.48 95.4 235.85 94.96 235.08 94.8Z" fill="#DDC06C"/>
<path d="M237.52 74.5L213.59 84.07L164.23 161.19L198.81 147.51L237.52 74.5Z" fill="#F46438"/>
<path opacity="0.6" d="M184.77 129.1L164.24 161.18L198.81 147.5L236.73 76C225.42 96.81 193.56 133.44 184.77 129.1Z" fill="#F46438"/>
<path opacity="0.7" d="M198.16 147.83L269.81 119.48L258.64 103.91C255.78 112.51 250.15 121.89 239.22 120.77C221.34 118.92 228.56 93.19 230.08 88.36L198.16 147.83Z" fill="#FFE89F"/>
<path d="M213.8 181.86C214.18 183.41 213.23 184.98 211.67 185.36L209.51 185.89C207.96 186.27 206.39 185.32 206.01 183.76L169.96 36.28C169.58 34.73 170.53 33.16 172.09 32.78L174.25 32.25C175.81 31.87 177.37 32.82 177.75 34.38L213.8 181.86Z" fill="#1A894A"/>
<path opacity="0.4" d="M174.24 32.25L173.3 32.48L192.61 111.48C192.99 113.03 192.04 114.6 190.48 114.98L189.26 115.28L206 183.77C206.38 185.32 207.95 186.28 209.5 185.9L211.66 185.37C213.22 184.99 214.17 183.42 213.79 181.87L177.75 34.38C177.37 32.82 175.8 31.87 174.24 32.25Z" fill="#1A894A"/>
<path d="M198.79 154.73C198.79 156.33 197.49 157.63 195.89 157.63H193.67C192.07 157.63 190.77 156.33 190.77 154.73V2.9C190.77 1.3 192.07 0 193.67 0H195.89C197.49 0 198.79 1.3 198.79 2.9V154.73Z" fill="#1A894A"/>
<path opacity="0.4" d="M195.89 0H194.93V81.33C194.93 82.93 193.63 84.23 192.03 84.23H190.77V154.73C190.77 156.33 192.07 157.63 193.67 157.63H195.89C197.49 157.63 198.79 156.33 198.79 154.73V2.9C198.79 1.3 197.49 0 195.89 0Z" fill="#1A894A"/>
<path d="M251.059 49.31L221.029 5.79C220.359 4.81 219.199 4.37 218.109 4.57L216.889 4.41C215.299 4.2 213.849 5.31 213.629 6.9L193.569 157.4C193.359 158.99 194.469 160.44 196.059 160.66L198.259 160.95C199.849 161.16 201.299 160.05 201.509 158.46L220.149 18.64L244.419 53.82C245.319 55.14 247.119 55.49 248.439 54.59L250.279 53.34C251.619 52.44 251.959 50.63 251.059 49.31Z" fill="#1A894A"/>
<path opacity="0.4" d="M248.46 54.59L249.24 54.06C243.57 45.89 220.33 12.76 217.65 14.17C214.77 15.69 215.74 80.37 202.84 87.83L193.56 157.4C193.35 158.99 194.46 160.44 196.05 160.66L198.25 160.95C199.84 161.16 201.29 160.05 201.5 158.46L220.14 18.64L244.41 53.82C245.33 55.14 247.13 55.48 248.46 54.59Z" fill="#1A894A"/>
<path d="M79.6401 58.35C72.9301 59.05 67.2101 62.97 63.4501 68.69C56.6401 68.01 50.0001 69.99 45.2301 74.76C35.9201 84.08 37.2501 100.49 48.1901 111.43C59.1401 122.37 75.5601 123.69 84.8701 114.37C84.9501 114.28 85.0301 114.19 85.1201 114.11C85.2401 114.1 85.3601 114.1 85.4801 114.08C98.5801 112.71 107.89 99.12 106.28 83.73C104.66 68.35 92.7301 56.98 79.6401 58.35Z" fill="#F46438"/>
<path d="M80.7801 54.83C76.9801 65 63.8901 69.51 63.8901 69.51C63.8901 69.51 56.9501 57.53 60.7401 47.36C64.5301 37.19 77.6201 32.68 77.6201 32.68C77.6201 32.68 84.5701 44.66 80.7801 54.83Z" fill="#1A894A"/>
<path opacity="0.4" d="M77.6301 32.68C77.6301 32.68 75.4201 33.44 72.5501 35.05C73.7501 37.56 74.6001 40.38 74.6401 43.36C74.7901 54.21 64.2201 63.16 64.2201 63.16C64.2201 63.16 62.3301 61.64 60.1201 59.09C61.2601 64.97 63.8901 69.52 63.8901 69.52C63.8901 69.52 76.9801 65 80.7801 54.83C84.5701 44.66 77.6301 32.68 77.6301 32.68Z" fill="#1A894A"/>
<path opacity="0.6" d="M106.27 83.74C105.1 72.6 98.5399 63.58 90.0399 59.96C96.7899 88.6 67.9099 111.87 47.3599 110.58C47.6299 110.87 47.8999 111.16 48.1799 111.44C59.1299 122.38 75.5499 123.7 84.8599 114.38C84.9399 114.29 85.0199 114.2 85.1099 114.12C85.2299 114.11 85.3499 114.11 85.4699 114.09C98.5599 112.72 107.88 99.13 106.27 83.74Z" fill="#F46438"/>
<path d="M163.141 97.5L155.991 82.73L145.601 99.35L155.061 101.77L163.141 97.5Z" fill="#193B91"/>
<path d="M163.151 97.5H145.141V230.81H163.151V97.5Z" fill="#193B91"/>
<path opacity="0.6" d="M153.331 199.65V96.58L157.331 85.5L155.981 82.72L146.751 97.49H145.871L145.141 104.17V230.81H163.151V208.8C152.211 210.11 153.331 199.65 153.331 199.65Z" fill="#523404"/>
<path d="M97.8105 97.5L107.851 82.73H155.991L147.671 97.5L100.581 99.46L97.8105 97.5Z" fill="#6B92F2"/>
<path d="M156.001 75.8H107.851V82.73H156.001V75.8Z" fill="#6B92F2"/>
<path opacity="0.6" d="M137.861 80.76H107.851V82.72C107.851 82.72 140.421 83.17 142.511 85.4C145.371 88.46 116.531 93.41 101.721 91.74L97.8105 97.49L100.581 99.45L147.671 97.49L155.981 82.72H156.001V75.8H137.181C139.361 78.09 137.861 80.76 137.861 80.76Z" fill="#523404"/>
<path d="M147.671 97.5H97.8105V230.81H147.671V97.5Z" fill="#6B92F2"/>
<path d="M147.671 126.7H97.8105V163.06H147.671V126.7Z" fill="white"/>
<path opacity="0.6" d="M97.8105 98.64C107.101 97.8 137.901 104.11 140.401 127.39C144.091 161.79 136.371 191.98 97.8105 190.27V230.81H147.671V97.5H97.8105V98.64Z" fill="#523404"/>
<path d="M78.3597 151.02L82.1297 150.16C81.1297 143.63 79.3397 126.8 86.1497 119.95C94.6997 111.37 89.1797 96.88 89.1797 96.88C89.1797 96.88 82.6997 103.61 79.5197 105.44C91.8197 89.1 76.8097 78.98 76.8097 78.98C76.8097 78.98 75.0797 77.44 71.9897 84.5C70.6197 79.58 64.2997 75.57 63.0697 74.83L63.0297 74.65C63.0297 74.65 62.9997 74.69 62.9597 74.76C62.8897 74.72 62.8497 74.7 62.8497 74.7L62.8897 74.88C62.0997 76.08 58.1397 82.43 59.0397 87.45C53.1997 82.43 52.2997 84.56 52.2997 84.56C52.2997 84.56 43.1497 100.19 61.3197 109.59C57.6697 109.32 48.9097 106.06 48.9097 106.06C48.9097 106.06 50.2197 121.51 61.6397 125.54C70.7597 128.75 76.4397 144.7 78.3597 151.02Z" fill="#6CC433"/>
<path opacity="0.6" d="M79.5398 105.43C87.8098 94.45 83.7398 86.28 80.1798 82.1C85.4198 93.08 78.3398 107.05 76.0898 108.84C68.3398 104.53 71.1398 90.76 63.0798 85.69C70.2098 93.32 67.6498 107.58 72.9798 117.01C65.3898 115.84 63.5398 105.9 63.5398 105.9C63.5398 105.9 62.8498 118.63 71.5098 123.29C58.8498 123.97 52.1898 114.36 49.2798 108.37C50.1498 112.84 52.9898 122.47 61.6598 125.53C70.7698 128.75 76.4498 144.7 78.3698 151.02L82.1398 150.16C81.1398 143.63 79.3498 126.8 86.1598 119.95C94.7098 111.37 89.1898 96.88 89.1898 96.88C89.1898 96.88 82.7098 103.6 79.5398 105.43Z" fill="#6CC433"/>
<path d="M80.1401 167.21L83.9101 168.1C85.8901 161.8 91.6901 145.89 100.83 142.75C112.28 138.81 113.71 123.37 113.71 123.37C113.71 123.37 104.93 126.56 101.27 126.8C119.51 117.54 110.49 101.85 110.49 101.85C110.49 101.85 109.61 99.7 103.73 104.68C104.67 99.66 100.76 93.28 99.9801 92.07L100.02 91.89C100.02 91.89 99.9801 91.91 99.9101 91.96C99.8701 91.89 99.8401 91.85 99.8401 91.85L99.8001 92.02C98.5701 92.75 92.2201 96.7 90.8101 101.61C87.7801 94.53 86.0301 96.05 86.0301 96.05C86.0301 96.05 70.9301 106.05 83.1001 122.49C79.9401 120.64 73.5101 113.86 73.5101 113.86C73.5101 113.86 67.8801 128.31 76.3601 136.96C83.1301 143.87 81.2001 160.69 80.1401 167.21Z" fill="#6CC433"/>
<path opacity="0.6" d="M101.27 126.8C113.53 120.58 113.47 111.46 112.12 106.14C111.99 118.3 99.4801 127.73 96.6701 128.34C91.6101 121.05 100.19 109.93 95.1801 101.83C98.2201 111.82 89.6401 123.5 90.2701 134.31C83.9701 129.91 86.6901 120.18 86.6901 120.18C86.6901 120.18 80.4601 131.3 86.1901 139.3C74.5201 134.34 72.7701 122.77 72.8001 116.12C71.6101 120.51 69.9201 130.41 76.3501 136.98C83.1101 143.88 81.1901 160.7 80.1301 167.22L83.9001 168.11C85.8801 161.81 91.6801 145.9 100.82 142.76C112.27 138.82 113.7 123.38 113.7 123.38C113.7 123.38 104.93 126.56 101.27 126.8Z" fill="#6CC433"/>
<path d="M91.3499 184.9L94.2299 182.32C90.1799 177.1 80.4399 163.25 83.0799 153.95C86.3899 142.3 74.5299 132.3 74.5299 132.3C74.5299 132.3 72.1299 141.33 70.2399 144.47C73.0599 124.21 55.0199 122.65 55.0199 122.65C55.0199 122.65 52.7599 122.14 53.4799 129.82C49.8899 126.18 42.4299 125.75 40.9899 125.7L40.8699 125.57C40.8699 125.57 40.8699 125.62 40.8599 125.7C40.7799 125.7 40.7299 125.7 40.7299 125.7L40.8499 125.83C40.7399 127.26 40.3599 134.73 43.5899 138.69C36.0399 137.13 36.2999 139.44 36.2999 139.44C36.2999 139.44 35.8799 157.54 56.3299 156.94C52.9999 158.48 43.7699 159.88 43.7699 159.88C43.7699 159.88 52.4199 172.75 64.3599 170.73C73.8899 169.12 86.5999 180.31 91.3499 184.9Z" fill="#6CC433"/>
<path opacity="0.6" d="M70.2397 144.48C72.1397 130.87 64.6197 125.7 59.4797 123.78C69.3897 130.83 69.9797 146.49 68.8797 149.14C60.0097 149.13 55.7797 135.74 46.2697 135.22C56.2097 138.43 60.8997 152.14 70.1297 157.8C62.9297 160.46 56.4797 152.67 56.4797 152.67C56.4797 152.67 62.0497 164.14 71.8897 164C61.1497 170.74 50.6597 165.57 45.2197 161.75C48.1497 165.24 55.3097 172.28 64.3697 170.75C73.8997 169.14 86.5997 180.33 91.3497 184.92L94.2297 182.34C90.1797 177.12 80.4397 163.27 83.0797 153.97C86.3897 142.32 74.5297 132.32 74.5297 132.32C74.5297 132.32 72.1297 141.34 70.2397 144.48Z" fill="#6CC433"/>
<path d="M87.2598 199.49L90.9498 200.65C93.3698 194.5 100.29 179.05 109.63 176.57C121.33 173.46 123.86 158.16 123.86 158.16C123.86 158.16 114.87 160.71 111.21 160.69C130.07 152.76 122.18 136.46 122.18 136.46C122.18 136.46 121.46 134.26 115.24 138.8C116.53 133.86 113.09 127.22 112.4 125.96L112.45 125.79C112.45 125.79 112.4 125.81 112.33 125.85C112.29 125.78 112.27 125.74 112.27 125.74L112.22 125.91C110.94 126.55 104.32 130.04 102.56 134.84C100.04 127.56 98.1898 128.96 98.1898 128.96C98.1898 128.96 82.4198 137.86 93.3898 155.12C90.3698 153.04 84.4398 145.82 84.4398 145.82C84.4398 145.82 77.7898 159.83 85.6298 169.06C91.8998 176.42 88.7798 193.06 87.2598 199.49Z" fill="#6CC433"/>
<path opacity="0.6" d="M111.22 160.69C123.89 155.36 124.49 146.26 123.51 140.86C122.51 152.98 109.36 161.5 106.52 161.9C101.99 154.27 111.34 143.79 106.93 135.35C109.25 145.53 99.8598 156.57 99.7198 167.39C93.7498 162.56 97.1598 153.04 97.1598 153.04C97.1598 153.04 90.1598 163.69 95.2898 172.08C84.0098 166.3 83.0898 154.64 83.5898 148C82.0898 152.3 79.6998 162.05 85.6498 169.06C91.8998 176.43 88.7798 193.06 87.2698 199.49L90.9598 200.65C93.3798 194.5 100.3 179.05 109.64 176.57C121.34 173.46 123.87 158.16 123.87 158.16C123.87 158.16 114.89 160.71 111.22 160.69Z" fill="#6CC433"/>
<path d="M214.191 242.25V182.99C217.711 167.94 220.281 148.4 208.431 132.38C196.581 116.36 194.661 110.6 194.661 93.94L178.671 93.62H178.661H178.651L162.661 93.94C162.661 110.6 160.741 116.36 148.891 132.38C137.041 148.4 139.601 167.94 143.121 182.99V242.25C143.121 242.25 129.031 312.08 147.291 333.86C152.411 339.31 168.111 331.94 168.111 331.94C168.111 331.94 171.941 336.73 178.661 336.75H178.671H178.681C185.391 336.74 189.221 331.94 189.221 331.94C189.221 331.94 204.911 339.31 210.041 333.86C228.281 312.08 214.191 242.25 214.191 242.25Z" fill="#B0F0FF"/>
<path d="M142.601 180.75C142.771 181.51 142.941 182.25 143.111 182.99V241.61H214.191V182.99C214.361 182.25 214.531 181.51 214.701 180.75H142.601Z" fill="#54CCE8"/>
<path opacity="0.6" d="M168.09 331.94C168.09 331.94 171.92 336.73 178.64 336.75H178.65H178.66C185.37 336.74 189.2 331.94 189.2 331.94C189.2 331.94 204.89 339.31 210.02 333.86C228.28 312.08 214.18 242.25 214.18 242.25V182.99C217.7 167.94 220.27 148.4 208.42 132.38C196.57 116.36 194.65 110.6 194.65 93.94L178.66 93.62H178.65H178.64L162.65 93.94C162.65 97.19 162.57 100.01 162.37 102.59H190.11C190.11 102.59 191.07 117.72 199.96 132.38C208.85 147.03 211.73 178.03 196.84 194.36C185.35 206.96 190.44 264.98 139.17 269.73C136.99 291.78 136.57 321.09 147.28 333.86C152.39 339.31 168.09 331.94 168.09 331.94Z" fill="#54CCE8"/>
<path d="M196.11 98.27C196.11 99.07 195.46 99.71 194.67 99.71H162.64C161.84 99.71 161.2 99.07 161.2 98.27V83.21C161.2 82.41 161.85 81.77 162.64 81.77H194.67C195.47 81.77 196.11 82.42 196.11 83.21V98.27Z" fill="#54CCE8"/>
<path d="M168.12 93.02C168.12 94.57 167.47 95.82 166.68 95.82H164.52C163.72 95.82 163.08 94.56 163.08 93.02V88.82C163.08 87.27 163.73 86.02 164.52 86.02H166.68C167.48 86.02 168.12 87.27 168.12 88.82V93.02Z" fill="#B3F4FF"/>
<path d="M174.61 93.02C174.61 94.57 173.97 95.82 173.17 95.82H171.01C170.21 95.82 169.57 94.56 169.57 93.02V88.82C169.57 87.27 170.22 86.02 171.01 86.02H173.17C173.97 86.02 174.61 87.27 174.61 88.82V93.02Z" fill="#B3F4FF"/>
<path d="M181.101 93.02C181.101 94.57 180.461 95.82 179.661 95.82H177.501C176.711 95.82 176.061 94.56 176.061 93.02V88.82C176.061 87.27 176.711 86.02 177.501 86.02H179.661C180.461 86.02 181.101 87.27 181.101 88.82V93.02Z" fill="#B3F4FF"/>
<path d="M187.58 93.02C187.58 94.57 186.94 95.82 186.14 95.82H183.98C183.19 95.82 182.54 94.56 182.54 93.02V88.82C182.54 87.27 183.19 86.02 183.98 86.02H186.14C186.94 86.02 187.58 87.27 187.58 88.82V93.02Z" fill="#B3F4FF"/>
<path d="M194.07 93.02C194.07 94.57 193.43 95.82 192.63 95.82H190.47C189.67 95.82 189.03 94.56 189.03 93.02V88.82C189.03 87.27 189.67 86.02 190.47 86.02H192.63C193.43 86.02 194.07 87.27 194.07 88.82V93.02Z" fill="#B3F4FF"/>
<path opacity="0.7" d="M194.66 81.77H191.46V93.14C191.46 93.94 190.82 94.58 190.02 94.58H161.19V98.26C161.19 99.06 161.84 99.7 162.63 99.7H194.66C195.46 99.7 196.1 99.06 196.1 98.26V83.21C196.11 82.41 195.46 81.77 194.66 81.77Z" fill="#54CCE8"/>
<path d="M54.54 153.7C77.23 170.57 90.82 190.7 84.9 198.66C78.98 206.62 55.79 199.4 33.1 182.53C10.41 165.66 -3.17999 145.53 2.74001 137.57C8.66001 129.61 31.85 136.83 54.54 153.7Z" fill="#1A894A"/>
<path opacity="0.5" d="M6.81006 134.9C16.4701 137.6 28.6201 143.83 40.6301 152.76C63.3201 169.63 76.9101 189.76 70.9901 197.72C70.0501 198.99 68.6601 199.87 66.9201 200.39C75.5001 202.79 82.1101 202.41 84.9001 198.66C90.8201 190.7 77.2301 170.57 54.5401 153.7C35.4601 139.52 16.0401 132.16 6.81006 134.9Z" fill="#1A894A"/>
<path d="M35.1003 169.75C36.2903 170.64 36.7903 171.99 36.2203 172.76C35.6403 173.54 34.2103 173.45 33.0103 172.56C31.8203 171.67 31.3203 170.32 31.8903 169.55C32.4703 168.77 33.9103 168.86 35.1003 169.75Z" fill="#22A858"/>
<path d="M20.34 169.29C21.53 170.18 22.03 171.53 21.46 172.3C20.88 173.07 19.45 172.98 18.25 172.1C17.06 171.21 16.56 169.86 17.13 169.09C17.71 168.31 19.14 168.4 20.34 169.29Z" fill="#1A894A"/>
<path d="M3.45008 141.73C4.64008 142.62 5.14008 143.97 4.57008 144.74C3.99008 145.52 2.56008 145.43 1.36008 144.54C0.16008 143.65 -0.33992 142.3 0.24008 141.53C0.82008 140.75 2.25008 140.84 3.45008 141.73Z" fill="#1A894A"/>
<path d="M52.59 193.05C53.78 193.94 54.28 195.29 53.71 196.06C53.13 196.84 51.7 196.74 50.5 195.86C49.31 194.97 48.81 193.62 49.38 192.85C49.96 192.07 51.39 192.16 52.59 193.05Z" fill="#1A894A"/>
<path d="M58.4699 172.8C59.6599 173.69 60.1699 175.04 59.5899 175.81C59.0099 176.59 57.5799 176.5 56.3799 175.61C55.1899 174.72 54.6899 173.37 55.2599 172.6C55.8399 171.82 57.2799 171.91 58.4699 172.8Z" fill="#22A858"/>
<path d="M42.7101 152.74C43.9001 153.63 44.4001 154.98 43.8301 155.75C43.2501 156.53 41.8201 156.44 40.6201 155.55C39.4301 154.66 38.9301 153.31 39.5001 152.54C40.0801 151.77 41.5201 151.86 42.7101 152.74Z" fill="#22A858"/>
<path d="M17.42 154.25C18.62 155.14 19.1201 156.49 18.5401 157.26C17.9601 158.04 16.53 157.95 15.33 157.06C14.14 156.17 13.63 154.82 14.21 154.05C14.79 153.27 16.23 153.36 17.42 154.25Z" fill="#22A858"/>
<path d="M13.88 139.36C15.07 140.25 15.57 141.6 15 142.37C14.42 143.15 12.99 143.06 11.79 142.17C10.6 141.28 10.1 139.93 10.67 139.16C11.25 138.38 12.69 138.48 13.88 139.36Z" fill="#22A858"/>
<path d="M63.2101 190.65C64.4001 191.54 64.9001 192.89 64.3301 193.66C63.7501 194.43 62.3201 194.34 61.1201 193.46C59.9301 192.57 59.4301 191.22 60.0001 190.45C60.5801 189.67 62.0201 189.76 63.2101 190.65Z" fill="#22A858"/>
<path d="M171.66 148.87C171.66 137.49 181.66 126.62 181.66 126.62H163.16H144.66C144.66 126.62 154.66 136.87 154.66 148.87C154.66 154.87 137.16 204.37 137.16 272.37C160.16 272.37 163.16 272.37 163.16 272.37C163.16 272.37 166.16 272.37 189.16 272.37C189.16 204.37 171.66 154.87 171.66 148.87Z" fill="#FDFFDE"/>
<path d="M175.41 194.12C182.73 219.16 181.12 260.47 138.12 244.51C137.51 253.38 137.16 262.68 137.16 272.37C160.16 272.37 163.16 272.37 163.16 272.37C163.16 272.37 166.16 272.37 189.16 272.37C189.16 204.37 171.66 154.87 171.66 148.87C171.66 137.49 181.66 126.62 181.66 126.62C161.41 142.62 167.66 167.62 175.41 194.12Z" fill="#E7E8CA"/>
<path d="M241.48 137.21C241.48 139.03 240.01 140.5 238.19 140.5H216.99C215.17 140.5 213.7 139.03 213.7 137.21V130.27C213.7 128.45 215.17 126.98 216.99 126.98H238.19C240 126.98 241.48 128.45 241.48 130.27V137.21Z" fill="white"/>
<path opacity="0.6" d="M238.28 126.99V131C238.28 132.82 236.81 134.29 234.99 134.29H213.79C213.76 134.29 213.73 134.28 213.7 134.28V137.21C213.7 139.03 215.17 140.5 216.99 140.5H238.19C240 140.5 241.48 139.03 241.48 137.21V130.27C241.48 128.48 240.05 127.04 238.28 126.99Z" fill="#EAE1E5"/>
<path d="M264.86 136.84H190.32V335.71H264.86V136.84Z" fill="#F9954B"/>
<path d="M261.02 208.1C261.02 226.57 246.05 241.53 227.58 241.53C209.12 241.53 194.15 226.56 194.15 208.1C194.15 189.64 209.12 174.67 227.58 174.67C246.06 174.66 261.02 189.63 261.02 208.1Z" fill="white"/>
<path d="M249.791 208.1C249.791 220.36 239.851 230.3 227.591 230.3C215.331 230.3 205.391 220.36 205.391 208.1C205.391 195.84 215.331 185.9 227.591 185.9C239.851 185.9 249.791 195.84 249.791 208.1Z" fill="#F9954B"/>
<path opacity="0.5" d="M240.08 189.75C242.22 193.16 243.48 197.19 243.48 201.52C243.48 213.78 233.54 223.72 221.28 223.72C216.64 223.72 212.34 222.3 208.78 219.87C212.7 226.13 219.65 230.3 227.58 230.3C239.84 230.3 249.78 220.36 249.78 208.1C249.79 200.47 245.94 193.75 240.08 189.75Z" fill="#F9954B"/>
<path opacity="0.5" d="M233.07 190.83C233.07 191.74 230.74 192.47 227.86 192.47C224.98 192.47 222.65 191.73 222.65 190.83C222.65 189.92 224.98 189.18 227.86 189.18C230.74 189.19 233.07 189.92 233.07 190.83Z" fill="#F9954B"/>
<path opacity="0.5" d="M264.86 136.84H256.39C272.28 238.24 240.81 276.35 190.32 265.54V335.71H264.86V136.84Z" fill="#F9954B"/>
<path d="M141.15 288.05C135.55 284.28 128.66 283.61 122.1 285.57C117.31 280.67 110.96 277.92 104.23 278.51C91.1103 279.67 81.5803 293.1 82.9403 308.52C84.3003 323.94 96.0403 335.49 109.15 334.34C109.27 334.33 109.39 334.31 109.51 334.3C109.61 334.37 109.7 334.44 109.8 334.51C120.72 341.87 136.58 337.44 145.24 324.61C153.9 311.78 152.07 295.41 141.15 288.05Z" fill="#F46438"/>
<path d="M144.29 286.08C134.85 291.44 121.92 286.48 121.92 286.48C121.92 286.48 124.3 272.84 133.74 267.48C143.18 262.12 156.11 267.08 156.11 267.08C156.11 267.08 153.73 280.72 144.29 286.08Z" fill="#1A894A"/>
<path opacity="0.4" d="M156.11 267.08C156.11 267.08 153.93 266.25 150.7 265.63C150.01 268.33 148.85 271.03 146.97 273.34C140.11 281.75 126.26 281.82 126.26 281.82C126.26 281.82 125.79 279.45 125.73 276.07C122.82 281.3 121.92 286.48 121.92 286.48C121.92 286.48 134.85 291.43 144.29 286.08C153.73 280.72 156.11 267.08 156.11 267.08Z" fill="#1A894A"/>
<path opacity="0.6" d="M145.25 324.61C151.51 315.33 152.28 304.2 148.09 295.96C134.87 322.24 97.7904 321.52 82.8604 307.33C82.8804 307.72 82.9004 308.12 82.9404 308.52C84.3004 323.94 96.0404 335.49 109.15 334.34C109.27 334.33 109.39 334.31 109.51 334.3C109.61 334.37 109.7 334.44 109.8 334.51C120.73 341.87 136.59 337.44 145.25 324.61Z" fill="#F46438"/>
<path d="M293.11 148.59C296.21 153.76 294.53 160.46 289.36 163.56C284.19 166.66 277.49 164.98 274.39 159.81C271.29 154.64 272.97 147.94 278.14 144.84C283.31 141.75 290.01 143.43 293.11 148.59Z" fill="#FFA17F"/>
<path opacity="0.6" d="M285.56 143.45C286 143.95 286.41 144.49 286.77 145.09C289.87 150.26 288.19 156.96 283.02 160.06C280.7 161.45 278.07 161.87 275.6 161.45C279.02 165.3 284.78 166.3 289.36 163.56C294.53 160.46 296.21 153.76 293.11 148.59C291.4 145.74 288.59 143.96 285.56 143.45Z" fill="#FFA17F"/>
<path d="M281.04 145.5C281.37 146.06 281.19 146.78 280.64 147.12L279.14 148.02C278.58 148.36 277.86 148.17 277.52 147.61C277.19 147.05 277.37 146.33 277.92 145.99L279.42 145.09C279.98 144.76 280.71 144.94 281.04 145.5Z" fill="#8E1043"/>
<path d="M310.75 149.87C308.75 155.56 302.53 158.55 296.84 156.55C291.15 154.55 288.16 148.33 290.16 142.64C292.16 136.95 298.38 133.96 304.07 135.96C309.75 137.96 312.74 144.18 310.75 149.87Z" fill="#FFA17F"/>
<path opacity="0.6" d="M309.881 140.77C309.781 141.43 309.621 142.1 309.391 142.75C307.391 148.44 301.171 151.43 295.481 149.43C292.931 148.54 290.931 146.78 289.671 144.62C288.901 149.71 291.811 154.78 296.841 156.55C302.531 158.55 308.751 155.55 310.751 149.87C311.851 146.73 311.431 143.44 309.881 140.77Z" fill="#FFA17F"/>
<path d="M305.42 138.61C305.21 139.22 304.53 139.55 303.92 139.33L302.27 138.75C301.66 138.54 301.33 137.86 301.55 137.25C301.76 136.64 302.44 136.31 303.05 136.53L304.7 137.11C305.31 137.32 305.63 138 305.42 138.61Z" fill="#8E1043"/>
<path d="M291.47 168.83C294.18 174.21 292.02 180.77 286.63 183.48C281.25 186.19 274.69 184.03 271.97 178.64C269.26 173.26 271.42 166.7 276.81 163.99C282.2 161.28 288.76 163.45 291.47 168.83Z" fill="#FFA17F"/>
<path opacity="0.6" d="M284.32 163.15C284.73 163.68 285.1 164.25 285.41 164.88C288.12 170.26 285.96 176.82 280.57 179.53C278.15 180.75 275.5 180.97 273.07 180.38C276.19 184.46 281.87 185.89 286.64 183.49C292.02 180.78 294.19 174.22 291.48 168.84C289.98 165.86 287.31 163.88 284.32 163.15Z" fill="#FFA17F"/>
<path d="M279.67 164.86C279.96 165.44 279.73 166.15 279.15 166.44L277.59 167.23C277.01 167.52 276.3 167.29 276.01 166.71C275.72 166.13 275.95 165.42 276.53 165.13L278.09 164.34C278.66 164.04 279.37 164.28 279.67 164.86Z" fill="#8E1043"/>
<path d="M317.361 164.77C314.231 169.92 307.511 171.55 302.371 168.42C297.221 165.29 295.591 158.57 298.721 153.43C301.851 148.28 308.571 146.65 313.711 149.78C318.861 152.91 320.501 159.62 317.361 164.77Z" fill="#FFA17F"/>
<path opacity="0.6" d="M318.4 155.69C318.16 156.32 317.87 156.93 317.51 157.53C314.38 162.68 307.66 164.31 302.51 161.18C300.2 159.78 298.61 157.65 297.82 155.27C296.01 160.08 297.8 165.66 302.36 168.43C307.51 171.56 314.22 169.93 317.35 164.78C319.09 161.93 319.36 158.62 318.4 155.69Z" fill="#FFA17F"/>
<path d="M314.49 152.65C314.15 153.21 313.43 153.38 312.87 153.04L311.37 152.13C310.81 151.79 310.64 151.07 310.98 150.51C311.32 149.95 312.04 149.78 312.6 150.11L314.1 151.02C314.65 151.37 314.83 152.1 314.49 152.65Z" fill="#8E1043"/>
<path d="M306.38 166.28C306.38 172.31 301.49 177.19 295.47 177.19C289.44 177.19 284.56 172.3 284.56 166.28C284.56 160.25 289.45 155.37 295.47 155.37C301.49 155.37 306.38 160.26 306.38 166.28Z" fill="#FFA17F"/>
<path opacity="0.6" d="M302.55 157.99C302.67 158.65 302.75 159.33 302.75 160.02C302.75 166.05 297.86 170.93 291.84 170.93C289.14 170.93 286.67 169.94 284.76 168.31C285.71 173.37 290.14 177.19 295.48 177.19C301.51 177.19 306.39 172.3 306.39 166.28C306.38 162.96 304.89 159.99 302.55 157.99Z" fill="#FFA17F"/>
<path d="M297.62 157.43C297.62 158.08 297.09 158.61 296.44 158.61H294.69C294.04 158.61 293.51 158.08 293.51 157.43C293.51 156.78 294.04 156.25 294.69 156.25H296.44C297.1 156.25 297.62 156.78 297.62 157.43Z" fill="#8E1043"/>
<path d="M323.11 179.14C319.98 184.29 313.26 185.92 308.12 182.79C302.97 179.66 301.34 172.94 304.47 167.8C307.6 162.65 314.32 161.02 319.47 164.15C324.61 167.28 326.24 173.99 323.11 179.14Z" fill="#FFA17F"/>
<path opacity="0.6" d="M324.15 170.06C323.91 170.69 323.62 171.3 323.26 171.9C320.13 177.05 313.42 178.68 308.27 175.55C305.96 174.14 304.37 172.02 303.58 169.63C301.77 174.44 303.56 180.02 308.12 182.79C313.27 185.92 319.98 184.29 323.11 179.14C324.84 176.3 325.11 172.99 324.15 170.06Z" fill="#FFA17F"/>
<path d="M320.23 167.02C319.89 167.58 319.17 167.75 318.61 167.41L317.11 166.5C316.55 166.16 316.38 165.44 316.72 164.88C317.06 164.32 317.78 164.15 318.34 164.49L319.84 165.4C320.4 165.74 320.57 166.47 320.23 167.02Z" fill="#8E1043"/>
<path d="M307.23 177.05C309.94 182.43 307.78 188.99 302.39 191.7C297.01 194.41 290.45 192.25 287.73 186.86C285.02 181.48 287.18 174.92 292.57 172.21C297.96 169.5 304.52 171.66 307.23 177.05Z" fill="#FFA17F"/>
<path opacity="0.6" d="M300.08 171.36C300.49 171.89 300.86 172.47 301.17 173.08C303.88 178.46 301.72 185.02 296.33 187.73C293.91 188.95 291.27 189.17 288.83 188.58C291.95 192.66 297.63 194.09 302.4 191.69C307.78 188.98 309.95 182.42 307.24 177.04C305.74 174.08 303.07 172.1 300.08 171.36Z" fill="#FFA17F"/>
<path d="M295.43 173.08C295.72 173.66 295.49 174.37 294.91 174.66L293.35 175.45C292.77 175.74 292.06 175.51 291.77 174.93C291.48 174.35 291.71 173.64 292.29 173.35L293.85 172.56C294.43 172.26 295.14 172.49 295.43 173.08Z" fill="#8E1043"/>
<path d="M142.21 283.62C142.21 285.4 140.76 286.85 138.98 286.85H96.1402C94.3502 286.85 92.9102 285.4 92.9102 283.62V218.96C92.9102 217.17 94.3602 215.73 96.1402 215.73H138.98C140.77 215.73 142.21 217.18 142.21 218.96V283.62Z" fill="#333132"/>
<path d="M136.91 252.64C136.91 263.33 128.24 271.99 117.56 271.99C106.87 271.99 98.21 263.32 98.21 252.64C98.21 241.95 106.88 233.29 117.56 233.29C128.24 233.28 136.91 241.95 136.91 252.64Z" fill="#D6D6D6"/>
<path d="M124.4 258.7C119.55 264.24 112.55 266.05 108.77 262.74C104.99 259.43 105.86 252.26 110.72 246.72C115.57 241.18 122.57 239.37 126.35 242.68C130.12 245.98 129.25 253.16 124.4 258.7Z" fill="#494949"/>
<path opacity="0.5" d="M127.17 243.58C126.96 246.64 125.51 250.08 122.91 253.04C118.06 258.58 111.06 260.39 107.28 257.08C106.97 256.81 106.7 256.5 106.45 256.18C106.27 258.83 107.01 261.2 108.76 262.74C112.54 266.05 119.54 264.24 124.39 258.7C128.85 253.62 129.94 247.16 127.17 243.58Z" fill="#494949"/>
<path d="M126.019 245.81C125.539 246.34 124.509 246.2 123.709 245.48C122.909 244.77 122.649 243.75 123.119 243.22C123.599 242.69 124.629 242.83 125.429 243.55C126.239 244.26 126.499 245.27 126.019 245.81Z" fill="#333132"/>
<path opacity="0.5" d="M142.159 218.44C142.139 218.3 142.099 218.16 142.059 218.02C141.649 216.7 140.439 215.73 138.979 215.73H133.349C133.529 216.51 133.679 217.26 133.839 218.02H93.0594C92.9694 218.32 92.8994 218.63 92.8994 218.96V224.21H134.949C140.069 258.72 123.209 274.87 92.8994 268.53V283.62C92.8994 285.4 94.3494 286.85 96.1294 286.85H138.969C140.759 286.85 142.199 285.4 142.199 283.62V224.21V218.96C142.209 218.78 142.189 218.61 142.159 218.44Z" fill="#494949"/>
<path d="M146.25 217.48C146.25 219.19 144.86 220.58 143.15 220.58H91.9599C90.2499 220.58 88.8599 219.19 88.8599 217.48C88.8599 215.77 90.2499 214.38 91.9599 214.38H143.15C144.86 214.38 146.25 215.76 146.25 217.48Z" fill="#D6D6D6"/>
<path d="M233.9 344.11C232.42 346.89 229.6 348.27 227.6 347.2C225.6 346.13 225.19 343.02 226.68 340.24C228.16 337.47 230.98 336.08 232.98 337.15C234.97 338.22 235.39 341.33 233.9 344.11Z" fill="#FFF24D"/>
<path d="M233.9 344.11C232.42 346.89 229.6 348.27 227.6 347.2C225.6 346.13 225.19 343.02 226.68 340.24C228.16 337.47 230.98 336.08 232.98 337.15C234.97 338.22 235.39 341.33 233.9 344.11Z" fill="#FFF24D"/>
<path d="M267.46 325.7C258.97 341.58 242.21 349.18 230.03 342.67C217.85 336.16 214.85 318 223.35 302.12C231.84 286.24 248.6 278.64 260.78 285.15C272.96 291.66 275.95 309.82 267.46 325.7Z" fill="#FFF24D"/>
<path d="M269.72 294.85C268.98 298.78 267.6 302.77 265.54 306.63C257.05 322.51 240.29 330.11 228.11 323.6C224.11 321.46 221.1 318.06 219.17 313.9C216.87 326.14 220.81 337.74 230.04 342.67C242.22 349.18 258.98 341.59 267.47 325.7C273.16 315.04 273.68 303.35 269.72 294.85Z" fill="#D8C72B"/>
<path d="M263.76 288.27C262.28 291.04 259.46 292.43 257.46 291.36C255.46 290.29 255.05 287.18 256.53 284.4C258.01 281.62 260.83 280.24 262.83 281.3C264.83 282.36 265.24 285.49 263.76 288.27Z" fill="#FFF24D"/>
<path d="M83.98 341.12V346.65C83.98 348.55 85.52 350.08 87.41 350.08H156.85C158.75 350.08 160.28 348.54 160.28 346.65V341.12H83.98Z" fill="#523404"/>
<path opacity="0.8" d="M83.98 341.12V346.65C83.98 348.55 85.52 350.08 87.41 350.08H156.85C158.75 350.08 160.28 348.54 160.28 346.65V341.12H83.98Z" fill="#523404"/>
<path d="M179.36 341.12V346.65C179.36 348.55 180.9 350.08 182.79 350.08H252.23C254.13 350.08 255.66 348.54 255.66 346.65V341.12H179.36Z" fill="#523404"/>
<path opacity="0.8" d="M179.36 341.12V346.65C179.36 348.55 180.9 350.08 182.79 350.08H252.23C254.13 350.08 255.66 348.54 255.66 346.65V341.12H179.36Z" fill="#523404"/>
<path d="M290.29 189.29H49.3598C39.2898 189.29 33.1198 197.27 35.6398 207.02L61.3598 325.88C63.8898 335.63 74.1998 343.61 84.2698 343.61H255.38C265.45 343.61 275.76 335.63 278.29 325.88L304.01 207.02C306.53 197.26 300.36 189.29 290.29 189.29ZM254.71 215.41V268.06H246.32V215.41H254.71ZM241.26 215.41V268.06H232.87V215.41H241.26ZM227.82 215.41V268.06H219.43V215.41H227.82ZM214.37 215.41V268.06H205.98V215.41H214.37ZM200.92 215.41V268.06H192.53V215.41H200.92ZM187.47 215.41V268.06H179.08V215.41H187.47ZM174.02 215.41V268.06H165.63V215.41H174.02ZM160.57 215.41V268.06H152.18V215.41H160.57ZM147.12 215.41V268.06H138.73V215.41H147.12ZM133.68 215.41V268.06H125.29V215.41H133.68ZM120.23 215.41V268.06H111.84V215.41H120.23ZM106.78 215.41V268.06H98.3898V215.41H106.78ZM93.3298 215.41V268.06H84.9398V215.41H93.3298ZM84.9398 330.63V276.84H93.3298V330.63H84.9398ZM98.3898 330.63V276.84H106.78V330.63H98.3898ZM111.83 330.63V276.84H120.22V330.63H111.83ZM125.28 330.63V276.84H133.67V330.63H125.28ZM138.73 330.63V276.84H147.12V330.63H138.73ZM152.18 330.63V276.84H160.57V330.63H152.18ZM165.63 330.63V276.84H174.02V330.63H165.63ZM179.08 330.63V276.84H187.47V330.63H179.08ZM192.52 330.63V276.84H200.91V330.63H192.52ZM205.97 330.63V276.84H214.36V330.63H205.97ZM219.42 330.63V276.84H227.81V330.63H219.42ZM232.87 330.63V276.84H241.26V330.63H232.87ZM246.32 330.63V276.84H254.71V330.63H246.32Z" fill="#523404"/>
<path d="M290.29 189.29H49.3598C39.2898 189.29 33.1198 197.27 35.6398 207.02L61.3598 325.88C63.8898 335.63 74.1998 343.61 84.2698 343.61H255.38C265.45 343.61 275.76 335.63 278.29 325.88L304.01 207.02C306.53 197.26 300.36 189.29 290.29 189.29ZM93.3298 330.63H84.9398V215.41H93.3298V330.63ZM106.78 330.63H98.3898V215.41H106.78V330.63ZM120.23 330.63H111.84V215.41H120.23V330.63ZM133.68 330.63H125.29V215.41H133.68V330.63ZM147.12 330.63H138.73V215.41H147.12V330.63ZM160.57 330.63H152.18V215.41H160.57V330.63ZM174.02 330.63H165.63V215.41H174.02V330.63V330.63ZM187.47 330.63H179.08V215.41H187.47V330.63V330.63ZM200.92 330.63H192.53V215.41H200.92V330.63V330.63ZM214.37 330.63H205.98V215.41H214.37V330.63ZM227.82 330.63H219.43V215.41H227.82V330.63ZM241.26 330.63H232.87V215.41H241.26V330.63ZM254.71 330.63H246.32V215.41H254.71V330.63V330.63Z" fill="#523404"/>
<path opacity="0.8" d="M36.6298 211.59H261.37C259.4 216.81 257.18 221.82 254.71 226.62V330.62H246.32V240.82C244.7 243.21 243.02 245.54 241.27 247.81V330.62H232.88V257.63C231.24 259.36 229.55 261.05 227.83 262.69V330.61H219.44V270.01C217.79 271.33 216.1 272.62 214.39 273.86V330.61H206V279.51C204.34 280.53 202.65 281.52 200.95 282.48V330.62H192.56V286.86C190.9 287.66 189.21 288.42 187.51 289.16V330.62H179.12V292.52C177.45 293.13 175.77 293.73 174.07 294.29V330.62H165.68V296.8C164.01 297.26 162.32 297.68 160.63 298.08V330.62H152.24V299.87C150.57 300.19 148.88 300.48 147.19 300.75V330.61H138.8V301.91C137.13 302.11 135.44 302.28 133.75 302.43V330.61H125.36V303.01C123.68 303.09 122 303.16 120.31 303.2V330.6H111.92V303.26C110.24 303.24 108.56 303.21 106.87 303.15V330.61H98.4798V302.73C96.7998 302.62 95.1198 302.48 93.4298 302.34V330.61H85.0398V301.46C75.2698 300.28 65.2598 298.52 55.0398 296.16L61.4698 325.85C63.9998 335.6 74.3098 343.58 84.3798 343.58H255.49C265.56 343.58 275.87 335.6 278.4 325.85L304.12 206.99C306.65 197.24 300.47 189.26 290.4 189.26H268.09H49.3598C39.2898 189.26 33.1198 197.24 35.6398 206.99L36.6298 211.59Z" fill="#523404"/>
<path d="M327.73 204.72C327.75 204.58 327.77 204.45 327.77 204.31V179.19C327.77 177.09 326.07 175.38 323.96 175.38H15.6801C13.5801 175.38 11.8701 177.08 11.8701 179.19V204.31C11.8701 204.45 11.9001 204.58 11.9101 204.72H327.73Z" fill="#523404"/>
<path opacity="0.4" d="M323.97 175.39H318.05V196.31C318.05 196.45 318.02 196.58 318.01 196.72H11.8799V204.32C11.8799 204.46 11.9099 204.59 11.9199 204.73H327.73C327.75 204.59 327.77 204.46 327.77 204.32V179.2C327.77 177.09 326.07 175.39 323.97 175.39Z" fill="#523404"/>
<path d="M130.48 191.93C129.63 193.62 127.56 194.3 125.87 193.45L6.35005 133.06C4.66005 132.21 3.98005 130.14 4.83005 128.45L9.73005 118.74C10.5901 117.05 12.6501 116.37 14.3401 117.22L133.86 177.61C135.55 178.47 136.23 180.53 135.38 182.22L130.48 191.93Z" fill="#523404"/>
<path opacity="0.4" d="M133.87 177.61L132.42 176.88L128.01 185.61C127.15 187.3 125.09 187.98 123.4 187.13L5.31992 127.47L4.82992 128.44C3.96992 130.13 4.64992 132.2 6.34992 133.05L125.87 193.44C127.56 194.3 129.63 193.62 130.48 191.92L135.38 182.22C136.24 180.54 135.56 178.47 133.87 177.61Z" fill="#523404"/>
<path d="M126.29 179.67C126.04 181.95 123.99 183.59 121.71 183.34C119.43 183.09 117.79 181.04 118.04 178.76C118.29 176.48 120.34 174.84 122.62 175.09C124.9 175.34 126.55 177.39 126.29 179.67Z" fill="white"/>
<path d="M124.229 175.62C124.309 176.02 124.349 176.43 124.299 176.86C124.049 179.14 121.999 180.78 119.719 180.53C119.129 180.47 118.589 180.28 118.109 180C118.449 181.73 119.859 183.13 121.709 183.34C123.989 183.59 126.039 181.95 126.289 179.67C126.479 177.98 125.619 176.42 124.229 175.62Z" fill="#CAE9FC"/>
<path d="M202.7 191.32C203.36 193.1 205.34 194 207.12 193.33L332.54 146.41C334.32 145.75 335.22 143.77 334.55 141.99L330.74 131.81C330.08 130.03 328.1 129.13 326.32 129.8L200.9 176.71C199.12 177.38 198.22 179.35 198.89 181.13L202.7 191.32Z" fill="#523404"/>
<path opacity="0.4" d="M200.9 176.71L202.42 176.14L205.85 185.3C206.51 187.08 208.49 187.98 210.27 187.31L334.18 140.96L334.56 141.98C335.23 143.76 334.32 145.73 332.55 146.4L207.13 193.32C205.35 193.99 203.38 193.08 202.71 191.31L198.9 181.13C198.22 179.36 199.12 177.38 200.9 176.71Z" fill="#523404"/>
<path d="M208.209 179.59C208.209 181.88 210.069 183.74 212.359 183.74C214.649 183.74 216.509 181.88 216.509 179.59C216.509 177.3 214.649 175.44 212.359 175.44C210.069 175.44 208.209 177.3 208.209 179.59Z" fill="white"/>
<path d="M210.699 175.79C210.579 176.18 210.489 176.59 210.489 177.02C210.489 179.31 212.349 181.17 214.639 181.17C215.229 181.17 215.789 181.04 216.289 180.82C215.759 182.51 214.209 183.74 212.349 183.74C210.059 183.74 208.199 181.88 208.199 179.59C208.209 177.89 209.229 176.43 210.699 175.79Z" fill="#CAE9FC"/>
</g>
<defs>
<clipPath id="clip0">
<rect width="334.77" height="350.08" fill="white"/>
</clipPath>
</defs>
</svg>
