<svg width="337" height="377" viewBox="0 0 337 377" fill="none" xmlns="http://www.w3.org/2000/svg">
<path d="M28.5297 127.84C28.5297 127.84 25.4097 120.94 23.8397 111.13C19.3797 111.94 15.4497 112.66 15.4497 112.66C15.4497 112.66 17.7297 122.78 15.5497 128.89C19.2897 136.11 28.5297 127.84 28.5297 127.84Z" fill="#F4CE2F"/>
<path d="M23.8396 127.38C23.8396 127.38 26.2196 129.58 28.5296 127.84C46.4696 149.16 59.5596 166.75 88.4896 164.11C117.43 161.47 133.61 149.08 133.61 149.08L134.34 150.7C134.34 150.7 110.29 182.53 79.7596 183.7C49.2396 184.87 30.6596 156.43 30.6596 156.43L19.0996 133.95L23.8396 127.38Z" fill="#F7E492"/>
<path d="M134.35 150.69C134.35 150.69 103.8 183.41 66.3498 169.89C28.8198 156.34 23.4898 127.5 23.4898 127.5L18.4698 127.25C12.9898 124.48 10.7298 142.94 17.5198 156.55C24.2098 169.97 44.8898 199.49 85.6498 194.26C126.41 189.02 136.72 170.9 140.26 154.22C138.74 151.87 134.35 150.69 134.35 150.69Z" fill="#F4CE2F"/>
<path d="M140.27 154.23C138.74 151.87 134.36 150.7 134.36 150.7C134.36 150.7 103.81 183.42 66.3598 169.9C51.6898 164.61 41.9498 156.98 35.5098 149.64C35.4398 149.64 35.3698 149.65 35.2998 149.65C50.3298 174.28 85.6798 174.71 89.1098 179.06C92.0698 182.81 86.9498 193.04 56.0098 191.59C64.4098 194.46 74.2498 195.72 85.6598 194.25C126.41 189.02 136.72 170.9 140.27 154.23Z" fill="#F4CE2F"/>
<path d="M133.62 149.07L134.35 150.69L140.26 154.22C140.26 154.22 141.1 150.41 137.74 148.83C134.38 147.25 133.62 149.07 133.62 149.07Z" fill="#605D51"/>
<path d="M23.5102 125.12C23.5102 125.12 22.9102 116.47 25.1502 105.32C20.0402 104.41 15.5302 103.61 15.5302 103.61C15.5302 103.61 13.9402 115.38 9.16016 121.06C10.2802 130.3 23.5102 125.12 23.5102 125.12Z" fill="#F4CE2F"/>
<path d="M18.66 122.75C18.66 122.75 20.33 126.06 23.51 125.12C34.24 155.15 41.26 179.25 73.36 187.97C105.46 196.69 127.77 189.86 127.77 189.86L127.91 191.89C127.91 191.89 89.39 216.43 56.18 205.51C22.96 194.58 14.39 156.64 14.39 156.64L10.96 127.91L18.66 122.75Z" fill="#F7E492"/>
<path d="M127.91 191.9C127.91 191.9 82.07 214.81 47.29 185.35C12.44 155.83 18.24 122.76 18.24 122.76L12.95 120.48C8.17998 115.32 -1.62002 134.22 0.229975 151.54C2.04998 168.6 12.45 208.54 58.27 219.2C104.09 229.86 122.39 214.53 132.85 198.05C132.15 194.91 127.91 191.9 127.91 191.9Z" fill="#F4CE2F"/>
<path d="M132.84 198.05C132.14 194.91 127.91 191.9 127.91 191.9C127.91 191.9 82.0698 214.81 47.2898 185.35C33.6698 173.81 26.2598 161.74 22.2798 151.3C22.1998 151.28 22.1198 151.25 22.0498 151.23C28.3398 183.66 66.0998 198.24 68.0398 204.27C69.7098 209.48 60.1398 218.4 27.5198 204.5C35.3898 210.93 45.4398 216.21 58.2698 219.2C104.09 229.85 122.38 214.52 132.84 198.05Z" fill="#F4CE2F"/>
<path d="M127.77 189.86L127.91 191.89L132.84 198.04C132.84 198.04 135.26 194.29 132.29 191.25C129.32 188.21 127.77 189.86 127.77 189.86Z" fill="#605D51"/>
<path d="M167.15 157.09C167.15 157.09 167.82 91.09 178.15 62.09C188.48 33.09 208.82 15.76 208.82 15.76C208.82 15.76 188.82 42.76 183.49 94.09C178.16 145.42 179.49 153.76 179.49 153.76L167.15 157.09Z" fill="#4BA072"/>
<path d="M186.4 44.18C183.37 49.5 180.5 55.49 178.15 62.09C171.07 81.96 168.53 119.22 167.63 140.69L179.49 143.09C179.78 135.67 180.58 123.39 182.54 103.41C174.59 95.88 175.45 75.99 186.4 44.18Z" fill="#4BA072"/>
<path d="M162.55 214.2L127.09 43.83L96.2002 0C96.2002 0 125.6 23.31 135.58 43.72C145.56 64.13 167.19 180.3 167.19 180.3L162.55 214.2Z" fill="#4BA072"/>
<path d="M162.55 214.2L167.19 180.29C167.19 180.29 161.13 147.76 153.95 114.1C152.8 121.26 150.97 127.99 148.61 120.99C144.45 108.62 133.65 48 129.06 41.52C124.47 35.04 96.2002 0 96.2002 0L127.09 43.83L162.55 214.2Z" fill="#4BA072"/>
<path d="M171.01 231.6L149.65 64.43L173.88 7.57L159.97 62.81L179.77 218.77L171.01 231.6Z" fill="#4BA072"/>
<path d="M155.55 64.33C155.32 68.32 166.29 137.36 166.29 137.36L158.8 136.08L171.01 231.61L179.77 218.78L159.97 62.82L173.88 7.58C173.88 7.57 155.78 60.33 155.55 64.33Z" fill="#4BA072"/>
<path d="M187.15 286.26C187.15 286.26 143.65 81.26 108.15 60.26C72.6499 39.26 27.6499 54.76 27.6499 54.76C27.6499 54.76 80.6499 51.76 104.65 65.76C123.15 97.26 175.65 287.76 175.65 287.76L187.15 286.26Z" fill="#4BA072"/>
<path d="M104.65 65.76C123.15 97.26 175.65 287.76 175.65 287.76L187.15 286.26C187.15 286.26 171.94 214.6 152.18 151.68C147.38 149.04 143.43 147.1 142.15 147.1C138.15 147.1 114.48 72.43 108.15 65.1C103.46 59.67 88.1397 56.43 66.6997 55.8C80.4797 57.21 94.9397 60.09 104.65 65.76Z" fill="#4BA072"/>
<path d="M82.9798 139.86H53.7998V319.76H82.9798V139.86Z" fill="#B5DDEA"/>
<path opacity="0.5" d="M74.0598 139.86V312.2H53.7998V319.76H82.9898V139.86H74.0598Z" fill="#B5DDEA"/>
<path d="M82.6398 139.86L67.7098 116.17L53.7998 139.86H82.6398Z" fill="#72B2C1"/>
<path d="M142.04 139.86L124.01 116.17H67.71L82.64 139.86H142.04Z" fill="#B5DDEA"/>
<path opacity="0.5" d="M67.71 116.17L82.64 139.86H91.4L76.46 116.17H67.71Z" fill="#B5DDEA"/>
<path d="M124.02 105.01H67.7397V116.17H124.02V105.01Z" fill="#E1F7FF"/>
<path d="M71.5098 105.01V112.73H124.01V116.17H67.7397V105.01H71.5098Z" fill="#C0EBF9"/>
<path opacity="0.5" d="M110.71 126.38C110.71 131.26 106.75 135.22 101.87 135.22C96.9898 135.22 93.0298 131.26 93.0298 126.38C93.0298 121.5 96.9898 117.54 101.87 117.54C106.75 117.54 110.71 121.5 110.71 126.38Z" fill="#B5DDEA"/>
<path d="M114.23 126.04C114.23 130.92 110.27 134.88 105.39 134.88C100.51 134.88 96.5498 130.92 96.5498 126.04C96.5498 121.16 100.51 117.2 105.39 117.2C110.27 117.2 114.23 121.15 114.23 126.04Z" fill="#E1F7FF"/>
<path d="M142.03 139.86H82.6396V319.76H142.03V139.86Z" fill="#E1F7FF"/>
<path opacity="0.5" d="M91.9097 139.86V311.86H142.04V319.76H82.6396V139.86H91.9097Z" fill="#B5DDEA"/>
<path d="M111.65 126.04C111.65 129.5 108.85 132.31 105.38 132.31C101.92 132.31 99.1196 129.51 99.1196 126.04C99.1196 122.58 101.92 119.77 105.38 119.77C108.85 119.77 111.65 122.58 111.65 126.04Z" fill="#72B2C1"/>
<path d="M136.47 260.94C136.47 265.99 132.37 270.09 127.32 270.09H105.6C100.55 270.09 96.4497 265.99 96.4497 260.94V178.99C96.4497 173.94 100.55 169.84 105.6 169.84H127.33C132.38 169.84 136.48 173.94 136.48 178.99V260.94H136.47Z" fill="white"/>
<path d="M183.05 300.24C194.93 319.51 188.94 344.77 169.67 356.66C150.4 368.54 125.14 362.55 113.25 343.28C101.37 324.01 107.36 298.75 126.63 286.86C145.91 274.97 171.17 280.96 183.05 300.24Z" fill="#F99B06"/>
<path opacity="0.7" d="M149.1 280.77C154.11 283.98 158.49 288.34 161.82 293.75C173.7 313.03 167.71 338.28 148.44 350.17C141.43 354.49 133.64 356.44 125.98 356.25C138.83 364.5 155.8 365.21 169.67 356.66C188.94 344.78 194.93 319.52 183.05 300.24C175.49 287.97 162.51 281.1 149.1 280.77Z" fill="#F99B06"/>
<path opacity="0.7" d="M134.63 289.66C135.48 291.03 133.72 293.65 130.7 295.51C127.68 297.37 124.55 297.77 123.71 296.39C122.86 295.02 124.62 292.4 127.64 290.54C130.65 288.69 133.78 288.29 134.63 289.66Z" fill="#F99B06"/>
<path d="M224.18 55.52H199.2V67.6H224.18V55.52Z" fill="#B8E3F2"/>
<path d="M222.72 65.09C219.57 65.09 212 65.53 211.68 65.55C211.36 65.53 203.8 65.09 200.64 65.09C163.8 125.89 168.4 211.55 168.4 211.55C168.4 211.55 168.4 293.36 168.4 324.22C168.4 355.08 179.45 362.45 190.97 358.76C201.34 367.32 211.26 363.98 211.68 363.83C212.1 363.98 222.02 367.32 232.39 358.76C243.9 362.44 254.96 355.08 254.96 324.22C254.96 293.36 254.96 211.55 254.96 211.55C254.96 211.55 259.57 125.88 222.72 65.09Z" fill="#B8E3F2"/>
<path d="M221.17 74.62C218.46 74.62 204.91 74.62 202.2 74.62C170.53 126.87 174.49 200.5 174.49 200.5C174.49 200.5 174.49 296 174.49 322.52C174.49 349.04 183.99 355.37 193.89 352.21C202.8 359.57 211.33 356.7 211.69 356.57C212.05 356.69 220.58 359.57 229.49 352.21C239.39 355.38 248.89 349.04 248.89 322.52C248.89 296 248.89 200.5 248.89 200.5C248.89 200.5 252.84 126.87 221.17 74.62Z" fill="#56BFED"/>
<path d="M168.41 211.55C168.41 211.55 168.41 228.12 168.41 248.25H254.97C254.97 228.12 254.97 211.55 254.97 211.55C254.97 211.55 256.07 191 252.87 162.89H170.5C167.3 191 168.41 211.55 168.41 211.55Z" fill="#207EB7"/>
<path d="M245.54 235.5C245.54 237.54 243.89 239.18 241.85 239.18H181.52C179.48 239.18 177.83 237.53 177.83 235.5V175.17C177.83 173.14 179.48 171.49 181.52 171.49H241.85C243.89 171.49 245.54 173.14 245.54 175.17V235.5V235.5Z" fill="white"/>
<path opacity="0.4" d="M224.17 67.53V55.52H199.2V65.09C199.17 65.09 199.13 65.09 199.09 65.09C199.12 65.06 199.17 65.25 199.2 65.56V66.76C199.16 67.26 199.05 67.78 198.84 68.15C205.13 68.15 214.87 68.15 219.16 68.15C226.38 85.19 236.51 119.23 238.84 179.76C240.92 233.88 217.79 332.56 168.42 318.47C168.42 320.47 168.42 322.38 168.42 324.21C168.42 355.07 179.47 362.44 190.99 358.75C201.36 367.31 211.28 363.97 211.7 363.82C212.12 363.97 222.04 367.31 232.41 358.75C243.92 362.43 254.98 355.07 254.98 324.21C254.98 293.35 254.98 211.54 254.98 211.54C254.98 211.54 259.44 128.15 224.17 67.53Z" fill="#56BFED"/>
<path d="M227.75 61.14V47.74C227.75 45.7 226.1 44.06 224.07 44.06H199.3C197.26 44.06 195.62 45.71 195.62 47.74V61.15H227.75V61.14Z" fill="#56BFED"/>
<path d="M201.63 54.72C201.63 55.61 200.91 56.33 200.02 56.33C199.13 56.33 198.41 55.61 198.41 54.72V48.89C198.41 48 199.13 47.28 200.02 47.28C200.91 47.28 201.63 48 201.63 48.89V54.72Z" fill="#207EB7"/>
<path d="M207.46 54.72C207.46 55.61 206.74 56.33 205.85 56.33C204.96 56.33 204.24 55.61 204.24 54.72V48.89C204.24 48 204.96 47.28 205.85 47.28C206.74 47.28 207.46 48 207.46 48.89V54.72Z" fill="#207EB7"/>
<path d="M213.3 54.72C213.3 55.61 212.58 56.33 211.69 56.33C210.8 56.33 210.08 55.61 210.08 54.72V48.89C210.08 48 210.8 47.28 211.69 47.28C212.58 47.28 213.3 48 213.3 48.89V54.72Z" fill="#207EB7"/>
<path d="M219.13 54.72C219.13 55.61 218.41 56.33 217.52 56.33C216.63 56.33 215.91 55.61 215.91 54.72V48.89C215.91 48 216.63 47.28 217.52 47.28C218.41 47.28 219.13 48 219.13 48.89V54.72Z" fill="#207EB7"/>
<path d="M224.96 54.72C224.96 55.61 224.24 56.33 223.35 56.33C222.46 56.33 221.74 55.61 221.74 54.72V48.89C221.74 48 222.46 47.28 223.35 47.28C224.24 47.28 224.96 48 224.96 48.89V54.72Z" fill="#207EB7"/>
<path opacity="0.8" d="M224.19 44.06C224.21 44.21 224.22 44.36 224.22 44.52V57.93H195.61V61.15H227.75V47.74C227.75 45.74 226.17 44.12 224.19 44.06Z" fill="#56BFED"/>
<path d="M92.5699 331.64C101.9 334.25 107.92 341.89 106.01 348.69C104.1 355.5 94.9999 358.9 85.6699 356.28C76.3399 353.67 70.3199 346.03 72.2199 339.23C74.1299 332.43 83.2399 329.03 92.5699 331.64Z" fill="#A131AD"/>
<path opacity="0.6" d="M76.4497 333.56C79.4497 333.05 82.7997 333.19 86.1897 334.14C95.5197 336.75 101.54 344.39 99.6297 351.19C98.9797 353.52 97.4697 355.44 95.4097 356.86C100.66 355.96 104.8 353.02 106.01 348.68C107.92 341.87 101.9 334.24 92.5697 331.63C86.4397 329.92 80.4097 330.82 76.4497 333.56Z" fill="#A131AD"/>
<path opacity="0.6" d="M76.2399 337.73C77.0399 337.95 77.3799 339.22 76.9999 340.57C76.6199 341.91 75.6699 342.82 74.8799 342.6C74.0799 342.38 73.7399 341.11 74.1199 339.76C74.4899 338.42 75.4399 337.51 76.2399 337.73Z" fill="#A131AD"/>
<path d="M123.52 330.18C118.95 338.73 110.2 342.95 103.96 339.62C97.7299 336.29 96.3799 326.66 100.94 318.12C105.51 309.57 114.26 305.35 120.5 308.68C126.74 312.01 128.09 321.64 123.52 330.18Z" fill="#A131AD"/>
<path opacity="0.6" d="M125.14 314.03C124.99 317.07 124.13 320.31 122.47 323.41C117.9 331.95 109.15 336.18 102.91 332.85C100.78 331.71 99.23 329.82 98.28 327.5C98.02 332.82 100 337.5 103.97 339.62C110.2 342.95 118.96 338.73 123.53 330.18C126.53 324.56 126.96 318.49 125.14 314.03Z" fill="#A131AD"/>
<path opacity="0.6" d="M121.11 312.92C120.72 313.65 119.41 313.71 118.17 313.05C116.94 312.39 116.26 311.27 116.65 310.54C117.04 309.81 118.35 309.75 119.59 310.41C120.82 311.07 121.5 312.19 121.11 312.92Z" fill="#A131AD"/>
<path d="M127.24 344.63C122.67 353.18 113.92 357.4 107.68 354.07C101.45 350.74 100.1 341.11 104.66 332.57C109.23 324.02 117.98 319.8 124.22 323.13C130.46 326.46 131.81 336.09 127.24 344.63Z" fill="#A131AD"/>
<path opacity="0.6" d="M128.85 328.48C128.7 331.52 127.84 334.76 126.18 337.86C121.61 346.4 112.86 350.63 106.62 347.3C104.49 346.16 102.94 344.27 101.99 341.95C101.73 347.27 103.71 351.95 107.68 354.07C113.91 357.4 122.67 353.17 127.24 344.63C130.24 339.01 130.67 332.93 128.85 328.48Z" fill="#A131AD"/>
<path opacity="0.6" d="M124.82 327.37C124.43 328.1 123.12 328.16 121.88 327.5C120.65 326.84 119.97 325.72 120.35 324.99C120.74 324.26 122.05 324.2 123.29 324.86C124.53 325.51 125.21 326.64 124.82 327.37Z" fill="#A131AD"/>
<path d="M83.84 314.1C87.08 323.23 84.3 332.55 77.64 334.91C70.98 337.27 62.95 331.78 59.72 322.65C56.48 313.52 59.26 304.2 65.92 301.84C72.58 299.48 80.61 304.96 83.84 314.1Z" fill="#A131AD"/>
<path opacity="0.6" d="M72.9901 302.02C75.1301 304.17 76.9501 307 78.1201 310.32C81.3601 319.45 78.5801 328.77 71.9201 331.13C69.6401 331.94 67.2001 331.81 64.8501 330.95C68.6101 334.72 73.4001 336.41 77.6401 334.91C84.3001 332.55 87.0801 323.23 83.8401 314.1C81.7101 308.09 77.5101 303.68 72.9901 302.02Z" fill="#A131AD"/>
<path opacity="0.6" d="M69.4599 304.25C69.7399 305.03 68.8899 306.04 67.5799 306.51C66.2599 306.98 64.9699 306.72 64.6999 305.94C64.4199 305.16 65.2699 304.15 66.5799 303.69C67.8899 303.23 69.1799 303.47 69.4599 304.25Z" fill="#A131AD"/>
<path d="M111.99 303.59C110.68 311.53 104.93 317.19 99.1398 316.24C93.3498 315.29 89.7098 308.08 91.0198 300.14C92.3298 292.2 98.0798 286.54 103.87 287.49C109.66 288.44 113.3 295.65 111.99 303.59Z" fill="#A131AD"/>
<path opacity="0.6" d="M108.94 290.46C109.64 292.89 109.82 295.67 109.35 298.56C108.04 306.5 102.29 312.16 96.4997 311.21C94.5197 310.88 92.7997 309.81 91.4297 308.24C92.6497 312.49 95.4597 315.64 99.1397 316.25C104.93 317.2 110.69 311.54 111.99 303.6C112.85 298.37 111.56 293.47 108.94 290.46Z" fill="#A131AD"/>
<path opacity="0.6" d="M105.48 290.66C105.37 291.34 104.35 291.73 103.21 291.54C102.07 291.35 101.23 290.65 101.34 289.97C101.45 289.29 102.47 288.9 103.61 289.09C104.75 289.28 105.59 289.98 105.48 290.66Z" fill="#A131AD"/>
<path d="M91.0099 297.78C91.9099 305.78 87.9199 312.79 82.0899 313.45C76.2599 314.11 70.7999 308.16 69.8899 300.17C68.9899 292.17 72.9799 285.16 78.8099 284.5C84.6499 283.84 90.1099 289.78 91.0099 297.78Z" fill="#A131AD"/>
<path opacity="0.6" d="M84.5 285.97C85.83 288.12 86.77 290.74 87.09 293.65C87.99 301.64 84 308.66 78.17 309.32C76.17 309.55 74.23 308.98 72.48 307.84C74.81 311.6 78.37 313.86 82.08 313.45C87.91 312.79 91.91 305.77 91 297.78C90.42 292.52 87.85 288.16 84.5 285.97Z" fill="#A131AD"/>
<path opacity="0.6" d="M81.2198 287.11C81.2998 287.79 80.4298 288.45 79.2698 288.58C78.1198 288.71 77.1198 288.26 77.0398 287.58C76.9598 286.9 77.8298 286.24 78.9898 286.11C80.1498 285.98 81.1498 286.43 81.2198 287.11Z" fill="#A131AD"/>
<path d="M101.53 324.2C101.53 332.97 96.3401 340.09 89.9401 340.09C83.5401 340.09 78.3501 332.98 78.3501 324.2C78.3501 315.43 83.5401 308.31 89.9401 308.31C96.3501 308.32 101.53 315.43 101.53 324.2Z" fill="#A131AD"/>
<path opacity="0.6" d="M95.93 310.61C97.11 313.1 97.8 316.06 97.8 319.25C97.8 328.02 92.61 335.14 86.21 335.14C84.02 335.14 81.98 334.29 80.23 332.84C82.3 337.2 85.87 340.09 89.95 340.09C96.35 340.09 101.54 332.98 101.54 324.2C101.53 318.43 99.28 313.4 95.93 310.61Z" fill="#A131AD"/>
<path opacity="0.6" d="M92.2402 311.45C92.2402 312.2 91.2101 312.81 89.9501 312.81C88.6901 312.81 87.6602 312.2 87.6602 311.45C87.6602 310.7 88.6901 310.1 89.9501 310.1C91.2101 310.09 92.2402 310.7 92.2402 311.45Z" fill="#A131AD"/>
<path d="M263.77 99.56H242.7V113.79H263.77V99.56Z" fill="#FDFF99"/>
<path d="M285.2 266.28C273.74 241.88 289.27 210.46 289.27 210.46V145.77C289.27 145.77 281.88 123.22 263.02 110.65C256.92 110.65 253.44 112.22 253.24 112.3C253.04 112.21 249.57 110.65 243.46 110.65C224.61 123.22 217.21 145.77 217.21 145.77V210.46C217.21 210.46 232.74 241.88 221.28 266.28C209.82 290.68 220.17 343.6 220.17 347.3C220.17 351 216.1 358.76 226.08 358.76C235.83 358.76 252.43 358.76 253.21 358.76C253.23 358.76 253.25 358.76 253.25 358.76C254.03 358.76 270.64 358.76 280.38 358.76C290.36 358.76 286.29 351 286.29 347.3C286.31 343.6 296.66 290.68 285.2 266.28Z" fill="#FDFF99"/>
<path opacity="0.4" d="M263.77 99.56H242.7V106.4H263.77V99.56Z" fill="#F4CE2F"/>
<path d="M267.29 101.4C267.29 102.22 266.63 102.88 265.81 102.88H240.67C239.85 102.88 239.19 102.22 239.19 101.4V89.2C239.19 88.38 239.85 87.72 240.67 87.72H265.81C266.63 87.72 267.29 88.38 267.29 89.2V101.4Z" fill="#F4CE2F"/>
<path d="M265.81 87.73H263.22V97.99C263.22 98.81 262.56 99.47 261.74 99.47H239.19V101.41C239.19 102.23 239.85 102.89 240.67 102.89H265.81C266.63 102.89 267.29 102.23 267.29 101.41V89.21C267.29 88.39 266.63 87.73 265.81 87.73Z" fill="#F4CE2F"/>
<path d="M217.22 145.77V210.46H289.27V145.77C289.27 145.77 289.14 145.37 288.87 144.66H217.62C217.35 145.36 217.22 145.77 217.22 145.77Z" fill="#F4CE2F"/>
<path d="M275.54 167.45C275.54 168.27 274.88 168.93 274.06 168.93H232.41C231.59 168.93 230.93 168.27 230.93 167.45V164.25C230.93 163.43 231.59 162.77 232.41 162.77H274.06C274.88 162.77 275.54 163.43 275.54 164.25V167.45Z" fill="#F4CE2F"/>
<path d="M275.54 179.77C275.54 180.59 274.88 181.25 274.06 181.25H232.41C231.59 181.25 230.93 180.59 230.93 179.77V176.57C230.93 175.75 231.59 175.09 232.41 175.09H274.06C274.88 175.09 275.54 175.75 275.54 176.57V179.77Z" fill="#F4CE2F"/>
<path opacity="0.4" d="M226.09 358.76C235.84 358.76 252.44 358.76 253.22 358.76C253.24 358.76 253.26 358.76 253.26 358.76C254.04 358.76 270.65 358.76 280.39 358.76C290.37 358.76 286.3 351 286.3 347.3C286.3 343.6 296.65 290.68 285.19 266.28C273.73 241.88 289.26 210.46 289.26 210.46V145.77C289.26 145.77 282 123.66 263.54 111.02C261.77 111.02 244.8 111.02 242.92 111.02C242.67 111.19 242.41 111.37 242.16 111.55C267.41 117.37 280.81 159.16 280.48 182.74C280.11 208.99 264.21 273 274.19 302.95C283.04 329.49 259.65 348.18 216.9 332.27C218.17 340.09 220.15 345.69 220.15 347.31C220.17 350.99 216.11 358.76 226.09 358.76Z" fill="#F4CE2F"/>
<path d="M183.46 192.2C183.46 208.15 172.59 217.94 159.19 217.94C145.79 217.94 134.92 208.14 134.92 192.2C134.92 176.26 149.4 160.2 159.19 160.2C168.98 160.2 183.46 176.26 183.46 192.2Z" fill="#D6AD76"/>
<path opacity="0.5" d="M170.68 165.69C168.51 178.42 158.67 186.04 146.86 186.04C143.03 186.04 139.42 185.24 136.2 183.73C135.38 186.5 134.91 189.35 134.91 192.2C134.91 208.14 145.78 217.94 159.18 217.94C172.59 217.94 183.45 208.15 183.45 192.2C183.46 181.99 177.52 171.75 170.68 165.69Z" fill="#D6AD76"/>
<path d="M249.72 192.2C249.72 208.15 238.85 217.94 225.45 217.94C212.04 217.94 201.18 208.14 201.17 192.2C201.17 176.26 215.66 160.2 225.44 160.2C235.23 160.2 249.72 176.26 249.72 192.2Z" fill="#D6AD76"/>
<path opacity="0.5" d="M236.94 165.69C234.78 178.42 224.93 186.04 213.11 186.04C209.29 186.04 205.67 185.24 202.46 183.73C201.64 186.5 201.17 189.35 201.17 192.2C201.17 208.14 212.04 217.94 225.45 217.94C238.85 217.94 249.72 208.14 249.72 192.2C249.72 181.99 243.78 171.75 236.94 165.69Z" fill="#D6AD76"/>
<path d="M315.98 192.2C315.98 208.15 305.11 217.94 291.71 217.94C278.3 217.94 267.44 208.15 267.43 192.2C267.43 176.25 281.92 160.2 291.71 160.2C301.49 160.2 315.98 176.26 315.98 192.2Z" fill="#D6AD76"/>
<path opacity="0.5" d="M303.2 165.69C301.03 178.42 291.19 186.04 279.37 186.04C275.55 186.04 271.93 185.24 268.72 183.73C267.9 186.5 267.43 189.35 267.43 192.2C267.43 208.15 278.3 217.94 291.71 217.94C305.11 217.94 315.98 208.15 315.98 192.2C315.98 181.99 310.04 171.75 303.2 165.69Z" fill="#D6AD76"/>
<path d="M269 194.06C265.56 194.06 263.47 196.78 264.37 200.1L273.23 232.84C274.13 236.16 277.69 238.89 281.13 238.89H303.25C306.69 238.89 310.21 236.16 311.05 232.82L319.33 200.14C320.17 196.8 318.05 194.07 314.6 194.07H269V194.06Z" fill="#FCF5CD"/>
<path d="M202.54 194.06C199.1 194.06 197.01 196.78 197.91 200.11L206.77 232.84C207.67 236.16 211.23 238.89 214.67 238.89H236.79C240.23 238.89 243.75 236.16 244.59 232.82L252.87 200.14C253.71 196.8 251.59 194.07 248.15 194.07L202.54 194.06Z" fill="#FCF5CD"/>
<path d="M136.09 194.06C132.64 194.06 130.56 196.78 131.46 200.1L140.32 232.83C141.22 236.15 144.78 238.88 148.22 238.88H170.34C173.78 238.88 177.29 236.15 178.14 232.81L186.42 200.13C187.27 196.79 185.14 194.06 181.7 194.06H136.09Z" fill="#FCF5CD"/>
<path d="M181.7 194.06H136.09C132.64 194.06 130.56 196.78 131.46 200.1L133.13 206.25C133.31 206.22 133.5 206.19 133.7 206.19H173.18C175.36 206.19 176.71 207.92 176.17 210.04L170.93 230.74C170.4 232.85 168.17 234.58 165.99 234.58H141.38C141.27 234.58 141.15 234.56 141.04 234.55C142.49 237.05 145.39 238.89 148.22 238.89H170.34C173.78 238.89 177.29 236.16 178.14 232.82L186.42 200.14C187.27 196.79 185.14 194.06 181.7 194.06Z" fill="#DBD5B6"/>
<path d="M248.16 194.06H202.55C199.11 194.06 197.02 196.78 197.92 200.1L199.59 206.25C199.77 206.22 199.96 206.19 200.16 206.19H239.64C241.82 206.19 243.17 207.92 242.63 210.04L237.39 230.73C236.85 232.84 234.63 234.58 232.45 234.58H207.84C207.73 234.58 207.61 234.55 207.5 234.55C208.95 237.05 211.85 238.89 214.68 238.89H236.8C240.25 238.89 243.76 236.16 244.6 232.82L252.88 200.14C253.72 196.79 251.6 194.06 248.16 194.06Z" fill="#DBD5B6"/>
<path d="M314.61 194.06H269C265.56 194.06 263.47 196.78 264.37 200.1L266.04 206.25C266.23 206.22 266.41 206.19 266.61 206.19H306.09C308.27 206.19 309.62 207.92 309.08 210.04L303.84 230.73C303.3 232.84 301.08 234.57 298.9 234.58H274.29C274.18 234.58 274.06 234.56 273.95 234.55C275.4 237.05 278.3 238.89 281.13 238.89H303.25C306.69 238.89 310.21 236.15 311.05 232.82L319.33 200.14C320.18 196.79 318.06 194.06 314.61 194.06Z" fill="#DBD5B6"/>
<path d="M336.4 195.76C336.4 199.65 333.25 202.81 329.35 202.81H124.73C120.84 202.81 117.68 199.66 117.68 195.76C117.68 191.87 120.84 188.71 124.73 188.71H329.35C333.25 188.71 336.4 191.87 336.4 195.76Z" fill="#FCF5CD"/>
<path opacity="0.5" d="M329.99 188.74C330.33 189.57 330.53 190.49 330.53 191.45C330.53 195.34 327.38 198.5 323.49 198.5H118.87C118.66 198.5 118.45 198.49 118.24 198.47C119.3 201.02 121.81 202.81 124.74 202.81H329.36C333.25 202.81 336.4 199.65 336.41 195.76C336.4 192.08 333.58 189.06 329.99 188.74Z" fill="#DBD5B6"/>
<path d="M295.19 223.17L181.12 224.28C171.24 223.68 155.07 223.73 145.19 224.39L45.1097 223.06C35.2297 223.72 28.9297 232.16 31.0997 241.82L53.2097 359.2C55.3797 368.86 65.2597 376.76 75.1597 376.76H265.16C275.06 376.76 284.94 368.86 287.11 359.2L309.22 241.82C311.38 232.16 305.07 223.77 295.19 223.17ZM103.4 348.76C103.4 351.52 101.16 353.76 98.3997 353.76H87.8997C85.1397 353.76 82.8997 351.52 82.8997 348.76V272.76C82.8997 270 85.1397 267.76 87.8997 267.76H98.3997C101.16 267.76 103.4 270 103.4 272.76V348.76ZM141.9 348.76C141.9 351.52 139.66 353.76 136.9 353.76H126.4C123.64 353.76 121.4 351.52 121.4 348.76V272.76C121.4 270 123.64 267.76 126.4 267.76H136.9C139.66 267.76 141.9 270 141.9 272.76V348.76ZM180.4 348.76C180.4 351.52 178.16 353.76 175.4 353.76H164.9C162.14 353.76 159.9 351.52 159.9 348.76V272.76C159.9 270 162.14 267.76 164.9 267.76H175.4C178.16 267.76 180.4 270 180.4 272.76V348.76ZM218.9 348.76C218.9 351.52 216.66 353.76 213.9 353.76H203.4C200.64 353.76 198.4 351.52 198.4 348.76V272.76C198.4 270 200.64 267.76 203.4 267.76H213.9C216.66 267.76 218.9 270 218.9 272.76V348.76ZM257.4 348.76C257.4 351.52 255.16 353.76 252.4 353.76H241.9C239.14 353.76 236.9 351.52 236.9 348.76V272.76C236.9 270 239.14 267.76 241.9 267.76H252.4C255.16 267.76 257.4 270 257.4 272.76V348.76Z" fill="#0F8143"/>
<path opacity="0.4" d="M295.19 223.17L181.12 224.28C171.24 223.68 155.07 223.73 145.19 224.39L45.1097 223.06C35.2297 223.72 28.9297 232.16 31.0997 241.82L34.3797 259.26H268.16C265.48 271.75 261.87 282.96 257.4 292.94V348.76C257.4 351.52 255.16 353.76 252.4 353.76H241.9C239.14 353.76 236.9 351.52 236.9 348.76V324.6C231.42 330.55 225.4 335.66 218.9 339.98V348.76C218.9 351.52 216.66 353.76 213.9 353.76H203.4C201.19 353.76 199.33 352.31 198.67 350.32C171.5 360.61 138.5 360.57 102.29 351.87C101.37 353.01 99.9797 353.76 98.3997 353.76H87.8997C85.1397 353.76 82.8997 351.52 82.8997 348.76V346.48C71.6197 342.94 60.0897 338.63 48.3797 333.61L53.1997 359.19C55.3697 368.85 65.2497 376.75 75.1497 376.75H265.15C275.05 376.75 284.93 368.85 287.1 359.19L305.92 259.25L309.2 241.81C311.38 232.16 305.07 223.77 295.19 223.17Z" fill="#0F8143"/>
<path d="M330.65 247.26C330.65 250.02 328.41 252.26 325.65 252.26H14.6499C11.8899 252.26 9.6499 250.02 9.6499 247.26V218.76C9.6499 216 11.8899 213.76 14.6499 213.76H325.65C328.41 213.76 330.65 216 330.65 218.76V247.26Z" fill="#0F8143"/>
<path d="M116.82 197.09C111.39 197.09 106.99 201.49 106.99 206.92V215.59C106.99 221.02 111.39 225.42 116.82 225.42C122.25 225.42 126.65 221.02 126.65 215.59V206.92C126.65 201.49 122.25 197.09 116.82 197.09ZM116.82 209.76C114.2 209.76 112.07 207.63 112.07 205.01C112.07 202.39 114.2 200.26 116.82 200.26C119.44 200.26 121.57 202.39 121.57 205.01C121.57 207.63 119.44 209.76 116.82 209.76Z" fill="#0F8143"/>
<path d="M116.15 204.76H12.1499" stroke="#0F8143" stroke-width="7" stroke-miterlimit="10" stroke-linecap="round"/>
<path d="M213.65 206.92V215.59C213.65 221.02 218.05 225.42 223.48 225.42C228.91 225.42 233.31 221.02 233.31 215.59V206.92C233.31 201.49 228.91 197.09 223.48 197.09C218.05 197.09 213.65 201.49 213.65 206.92ZM218.74 205.01C218.74 202.39 220.87 200.26 223.49 200.26C226.11 200.26 228.24 202.39 228.24 205.01C228.24 207.63 226.11 209.76 223.49 209.76C220.86 209.76 218.74 207.63 218.74 205.01Z" fill="#0F8143"/>
<path d="M224.15 204.76H328.15" stroke="#0F8143" stroke-width="7" stroke-miterlimit="10" stroke-linecap="round"/>
</svg>
