<svg width="183" height="23" viewBox="0 0 183 23" fill="none" xmlns="http://www.w3.org/2000/svg">
<path d="M19.44 22H25.35L20.28 0.999999H14.43L0.96 22H7.23L9.66 17.92H18.6L19.44 22ZM12.27 13.54L16.29 6.73L17.7 13.54H12.27ZM41.831 16.99C40.931 17.35 40.001 17.5 39.041 17.5C35.591 17.5 33.671 15.61 33.671 12.79C33.671 8.59 36.431 5.5 40.751 5.5C42.911 5.5 44.531 6.1 45.911 7.81L50.171 4.45C48.281 1.93 45.221 0.579999 41.021 0.579999C33.041 0.579999 27.671 5.89 27.671 13.18C27.671 18.67 31.811 22.42 38.231 22.42C41.411 22.42 44.351 21.52 46.511 19.9L48.281 11.05H43.031L41.831 16.99ZM71.487 7.69C71.487 3.49 68.397 0.999999 63.027 0.999999H54.057L49.857 22H55.797L56.907 16.42H59.907L63.027 22H69.237L65.667 15.7C69.327 14.44 71.487 11.56 71.487 7.69ZM65.487 8.26C65.487 10.57 63.957 11.83 61.347 11.83H57.807L59.067 5.68H62.187C64.227 5.68 65.487 6.49 65.487 8.26ZM83.404 22.42C91.114 22.42 96.514 17.11 96.514 9.82C96.514 4.39 92.524 0.579999 86.074 0.579999C78.364 0.579999 72.964 5.89 72.964 13.18C72.964 18.61 76.954 22.42 83.404 22.42ZM83.914 17.5C80.764 17.5 78.964 15.61 78.964 12.82C78.964 8.86 81.454 5.5 85.564 5.5C88.714 5.5 90.514 7.39 90.514 10.18C90.514 14.14 88.024 17.5 83.914 17.5ZM115.795 11.17C118.075 10.21 119.545 8.44 119.545 5.92C119.545 2.77 116.995 0.999999 112.255 0.999999H101.635L97.4351 22H108.985C114.385 22 118.615 19.9 118.615 15.34C118.615 13.39 117.595 11.95 115.795 11.17ZM110.845 5.29C112.405 5.29 113.335 5.8 113.335 6.94C113.335 8.5 112.195 9.34 110.095 9.34H105.835L106.645 5.29H110.845ZM109.315 17.71H104.155L104.995 13.45H110.245C111.685 13.45 112.705 13.96 112.705 15.22C112.705 16.9 111.385 17.71 109.315 17.71ZM136.452 22H142.362L137.292 0.999999H131.442L117.972 22H124.242L126.672 17.92H135.612L136.452 22ZM129.282 13.54L133.302 6.73L134.712 13.54H129.282ZM166.247 0.999999H160.217L153.497 9.37L150.197 0.999999H144.227L149.567 14.41L148.067 22H154.007L155.477 14.56L166.247 0.999999ZM170.949 22.42C177.099 22.42 181.059 19.45 181.059 14.95C181.059 8.47 170.829 10.12 170.859 7.24C170.859 6.1 172.179 5.2 174.639 5.2C176.709 5.2 178.749 5.74 180.399 6.79L182.559 2.38C180.669 1.21 177.969 0.579999 174.999 0.579999C168.789 0.579999 164.919 3.55 164.919 8.08C164.919 14.68 175.119 13.12 175.119 15.94C175.119 17.08 173.799 17.8 171.519 17.8C169.119 17.8 166.659 17.08 164.529 15.73L162.189 20.17C164.079 21.46 167.349 22.42 170.949 22.42Z" fill="#2B945B"/>
</svg>
